<svg class="logo-svg" preserveAspectRatio="xMidYMid meet" viewBox="0 0 161 32" fill="none" xmlns="http://www.w3.org/2000/svg">
<path d="M28.1825 12.8052C27.8813 9.31314 26.2698 6.05944 23.665 3.68858C21.0602 1.3151 17.6523 0 14.1176 0C10.583 0 7.17506 1.3151 4.57027 3.68596C1.96548 6.05682 0.351356 9.31052 0.0501937 12.8052C0.0158506 13.2008 0 13.599 0 14.0051C0 17.1671 1.08049 20.2348 3.06446 22.7104C5.04843 25.1861 7.81965 26.923 10.9237 27.6408L14.1176 32L17.3116 27.6408C20.4183 26.9256 23.1895 25.1861 25.1708 22.7104C27.1548 20.2348 28.2353 17.1645 28.2353 14.0051C28.2353 13.6016 28.2194 13.2008 28.1851 12.8052H28.1825ZM13.1085 21.1779C13.1085 21.2355 13.0926 21.2932 13.0636 21.3456C13.0345 21.3953 12.9922 21.4372 12.9394 21.4687C12.8892 21.4975 12.8311 21.5132 12.7703 21.5132C12.7122 21.5132 12.6541 21.4975 12.6013 21.4687L7.39169 18.4848C7.18827 18.3669 7.0192 18.1993 6.90032 17.9975C6.78144 17.7958 6.72068 17.5653 6.71803 17.3321V11.498C6.71803 11.4404 6.73388 11.3827 6.76294 11.3303C6.792 11.2806 6.83427 11.2386 6.88711 11.2072C6.9373 11.1784 6.99542 11.1627 7.05618 11.1627C7.1143 11.1627 7.17242 11.1784 7.22526 11.2072L12.4348 14.1911C12.6383 14.309 12.81 14.4766 12.9262 14.6783C13.0451 14.8801 13.1058 15.1106 13.1058 15.3464V21.1753L13.1085 21.1779ZM14.1176 12.6402C13.8825 12.6402 13.6501 12.5773 13.4466 12.4621L8.11817 9.41007C8.06798 9.38125 8.02571 9.33934 7.99665 9.28694C7.96759 9.23717 7.95174 9.17953 7.95174 9.11928C7.95174 9.05903 7.96759 9.00401 7.99665 8.95424C8.02571 8.90446 8.06798 8.86255 8.11817 8.83111L13.4466 5.77912C13.6501 5.66124 13.8825 5.60098 14.1176 5.60098C14.3528 5.60098 14.5852 5.66386 14.7887 5.77912L20.1171 8.83111C20.1673 8.85993 20.2096 8.90184 20.2386 8.95424C20.2677 9.00401 20.2835 9.06165 20.2835 9.11928C20.2835 9.17691 20.2677 9.23455 20.2386 9.28694C20.2096 9.33672 20.1673 9.37863 20.1171 9.41007L14.7887 12.4621C14.5852 12.5799 14.3528 12.6402 14.1176 12.6402ZM21.512 17.3321C21.512 17.5653 21.4512 17.7958 21.3323 18.0002C21.2135 18.2019 21.0444 18.3722 20.841 18.4874L15.6314 21.4713C15.5812 21.5001 15.5231 21.5158 15.4623 21.5158C15.4042 21.5158 15.3461 21.5001 15.2932 21.4713C15.243 21.4425 15.2008 21.4006 15.1691 21.3482C15.14 21.2984 15.1242 21.2408 15.1242 21.1805V15.3464C15.1242 15.1132 15.1876 14.8827 15.3038 14.6783C15.4227 14.4766 15.5918 14.3063 15.7952 14.1911L21.0048 11.2072C21.0549 11.1784 21.1131 11.1627 21.1738 11.1627C21.2319 11.1627 21.2901 11.1784 21.3429 11.2072C21.3931 11.236 21.4354 11.2779 21.4671 11.3303C21.4961 11.3801 21.512 11.4377 21.512 11.498V17.3321Z" fill="#9aa3b2"/>
<path d="M13.0636 21.3456C13.0926 21.2932 13.1085 21.2355 13.1085 21.1779L13.1058 15.3464C13.1058 15.1106 13.0451 14.8801 12.9262 14.6783C12.81 14.4766 12.6383 14.309 12.4348 14.1911L7.22526 11.2072C7.17242 11.1784 7.1143 11.1627 7.05618 11.1627C6.99542 11.1627 6.9373 11.1784 6.88711 11.2072C6.83427 11.2386 6.792 11.2806 6.76294 11.3303C6.73388 11.3827 6.71803 11.4404 6.71803 11.498V17.3321C6.72068 17.5653 6.78144 17.7958 6.90032 17.9975C7.0192 18.1993 7.18827 18.3669 7.39169 18.4848L12.6013 21.4687C12.6541 21.4975 12.7122 21.5132 12.7703 21.5132C12.8311 21.5132 12.8892 21.4975 12.9394 21.4687C12.9922 21.4372 13.0345 21.3953 13.0636 21.3456Z" fill="#9aa3b2"/>
<path d="M13.4466 12.4621C13.6501 12.5773 13.8825 12.6402 14.1176 12.6402C14.3528 12.6402 14.5852 12.5799 14.7887 12.4621L20.1171 9.41007C20.1673 9.37863 20.2096 9.33672 20.2386 9.28694C20.2677 9.23455 20.2835 9.17691 20.2835 9.11928C20.2835 9.06165 20.2677 9.00401 20.2386 8.95424C20.2096 8.90184 20.1673 8.85993 20.1171 8.83111L14.7887 5.77912C14.5852 5.66386 14.3528 5.60098 14.1176 5.60098C13.8825 5.60098 13.6501 5.66124 13.4466 5.77912L8.11817 8.83111C8.06798 8.86255 8.02571 8.90446 7.99665 8.95424C7.96759 9.00401 7.95174 9.05903 7.95174 9.11928C7.95174 9.17953 7.96759 9.23717 7.99665 9.28694C8.02571 9.33934 8.06798 9.38125 8.11817 9.41007L13.4466 12.4621Z" fill="#9aa3b2"/>
<path d="M21.3323 18.0002C21.4512 17.7958 21.512 17.5653 21.512 17.3321V11.498C21.512 11.4377 21.4961 11.3801 21.4671 11.3303C21.4354 11.2779 21.3931 11.236 21.3429 11.2072C21.2901 11.1784 21.2319 11.1627 21.1738 11.1627C21.1131 11.1627 21.0549 11.1784 21.0048 11.2072L15.7952 14.1911C15.5918 14.3063 15.4227 14.4766 15.3038 14.6783C15.1876 14.8827 15.1242 15.1132 15.1242 15.3464V21.1805C15.1242 21.2408 15.14 21.2984 15.1691 21.3482C15.2008 21.4006 15.243 21.4425 15.2932 21.4713C15.3461 21.5001 15.4042 21.5158 15.4623 21.5158C15.5231 21.5158 15.5812 21.5001 15.6314 21.4713L20.841 18.4874C21.0444 18.3722 21.2135 18.2019 21.3323 18.0002Z" fill="#9aa3b2"/>
<path d="M47.8428 10.3863C47.413 9.89506 46.8543 9.4732 46.1693 9.12343C45.2748 8.66686 44.2111 8.43724 43.0103 8.43724C41.7049 8.43724 40.5068 8.69356 39.4511 9.20353C38.4008 9.71083 37.4983 10.3783 36.765 11.1927C36.037 12.0044 35.4648 12.9175 35.0673 13.9054C34.6697 14.896 34.4656 15.9026 34.4656 16.8958C34.4656 17.8891 34.6563 18.9624 35.0324 19.961C35.4084 20.9622 35.9591 21.8727 36.6683 22.663C37.3774 23.456 38.2585 24.1102 39.29 24.6041C40.3242 25.1008 41.5195 25.3544 42.8492 25.3544C43.9613 25.3544 44.9981 25.1355 45.9329 24.7029C46.6877 24.3558 47.327 23.9019 47.8428 23.3572V24.9352H51.684V8.74162H47.8428V10.3863ZM47.601 18.7915C47.3539 19.3736 47.0101 19.8862 46.5803 20.3134C46.1478 20.7433 45.6401 21.0904 45.0733 21.3467C44.5119 21.6004 43.9048 21.7285 43.2709 21.7285C42.637 21.7285 41.9896 21.6004 41.4174 21.3441C40.8399 21.0877 40.3295 20.7406 39.8971 20.3108C39.4673 19.8836 39.1234 19.3709 38.8763 18.7889C38.6292 18.2068 38.5056 17.5713 38.5056 16.8932C38.5056 16.215 38.6292 15.5795 38.8763 14.9974C39.1234 14.4154 39.4673 13.9027 39.8971 13.4729C40.3295 13.043 40.8399 12.6959 41.4174 12.4396C41.9896 12.1859 42.6128 12.0551 43.2709 12.0551C43.929 12.0551 44.5119 12.1833 45.0733 12.4369C45.6401 12.6932 46.1478 13.0403 46.5803 13.4702C47.0101 13.8974 47.3539 14.41 47.601 14.9948C47.8482 15.5768 47.9717 16.2123 47.9717 16.8905C47.9717 17.5687 47.8482 18.2041 47.601 18.7862V18.7915Z" fill="#9aa3b2"/>
<path d="M137.937 3.34018C137.349 3.34018 136.839 3.55111 136.422 3.96496C136.006 4.37881 135.794 4.88612 135.794 5.47352C135.794 6.06092 136.006 6.56555 136.422 6.9794C136.839 7.39325 137.349 7.60418 137.94 7.60418C138.531 7.60418 139.039 7.39325 139.455 6.9794C139.872 6.56555 140.084 6.05825 140.084 5.47085C140.084 4.88345 139.872 4.37881 139.455 3.96229C139.039 3.54844 138.528 3.33751 137.94 3.33751L137.937 3.34018Z" fill="#9aa3b2"/>
<path d="M139.984 8.79234H136.084V24.9299H139.984V8.79234Z" fill="#9aa3b2"/>
<path d="M159.553 13.7639C159.174 12.76 158.624 11.8468 157.912 11.0512C157.2 10.2555 156.314 9.59868 155.282 9.10206C154.245 8.60276 153.042 8.34911 151.71 8.34911C150.595 8.34911 149.571 8.55737 148.663 8.96856C147.938 9.29697 147.296 9.75087 146.745 10.3142V8.7683H142.845V30.2966H146.745V23.4266C147.17 23.8966 147.715 24.3024 148.376 24.6362C149.276 25.0927 150.342 25.325 151.546 25.325C152.857 25.325 154.057 25.066 155.118 24.5561C156.174 24.0488 157.079 23.3759 157.813 22.5589C158.543 21.7445 159.118 20.8287 159.516 19.8355C159.916 18.8396 160.12 17.8303 160.12 16.8344C160.12 15.8385 159.929 14.7625 159.551 13.7585L159.553 13.7639ZM155.642 18.7194C155.384 19.3015 155.038 19.8115 154.611 20.236C154.181 20.6632 153.673 21.0076 153.098 21.2639C152.529 21.5176 151.922 21.6457 151.291 21.6457C150.659 21.6457 150.058 21.5176 149.499 21.2666C148.935 21.013 148.432 20.6659 148.003 20.2387C147.576 19.8141 147.232 19.3041 146.987 18.7248C146.743 18.148 146.619 17.5126 146.619 16.8424C146.619 16.1722 146.743 15.5368 146.987 14.96C147.232 14.3807 147.573 13.8707 148.003 13.4462C148.432 13.019 148.937 12.6719 149.499 12.4182C150.058 12.1672 150.659 12.0391 151.291 12.0391C151.922 12.0391 152.529 12.1672 153.098 12.4209C153.673 12.6772 154.181 13.0216 154.611 13.4488C155.04 13.876 155.387 14.386 155.642 14.9654C155.897 15.5421 156.026 16.1749 156.026 16.8451C156.026 17.5152 155.897 18.148 155.642 18.7248V18.7194Z" fill="#9aa3b2"/>
<path d="M60.0408 6.0716C60.0408 5.06501 60.8171 3.91691 62.1145 3.91691C62.598 3.91691 62.9526 3.97832 63.3555 4.13585L65.3084 0.849069L65.0962 0.774309C64.379 0.520658 63.2857 0.349778 62.3751 0.349778C60.3953 0.349778 58.7675 0.990579 57.6689 2.20276C56.7126 3.25742 56.1834 4.72325 56.1834 6.32792V8.787H53.9539V12.5918H56.2344V24.9779H60.0434V12.5944H63.5409V8.78967H60.0434V6.0716H60.0408Z" fill="#9aa3b2"/>
<path d="M103.374 8.8671C102.834 8.51733 102.166 8.34111 101.381 8.34111C100.597 8.34111 99.9602 8.55204 99.3773 8.97123C99.0898 9.17682 98.8373 9.41712 98.6171 9.69213V8.78433H94.7893V24.9379H98.6117V14.3112C98.6117 13.6704 98.8911 13.1738 99.3047 12.792C99.7238 12.4049 100.202 12.2153 100.766 12.2153C100.908 12.2153 101.091 12.2527 101.311 12.3301C101.397 12.3595 101.478 12.3942 101.553 12.4289L103.535 9.01662L103.549 8.97657L103.374 8.86443V8.8671Z" fill="#9aa3b2"/>
<path d="M117.117 19.2694C116.8 17.8944 115.927 16.8584 114.527 16.1856C113.525 15.705 112.408 15.486 111.328 15.2724C110.509 15.1096 109.639 14.9574 109.031 14.7144C108.588 14.5355 108.33 14.3379 108.148 14.0309C107.836 13.5076 108.132 13.011 108.166 12.9549C108.551 12.3435 109.421 11.9643 110.281 11.9643C111.223 11.9643 112.059 12.2473 112.763 12.8054C113.198 13.1525 113.466 13.5209 113.533 13.6331L113.657 13.844L117.082 11.975L116.958 11.7721C116.754 11.433 116.295 10.7681 115.516 10.1087C114.53 9.27561 112.824 8.2797 110.278 8.2797C109.117 8.2797 107.995 8.5467 107.036 9.054C106.112 9.53994 105.351 10.2341 104.83 11.0645C103.879 12.5811 103.836 14.3673 104.717 15.8465C105.249 16.741 106.034 17.3978 107.111 17.8543C108.038 18.2468 109.064 18.4391 109.972 18.61C110.157 18.6447 110.332 18.6767 110.506 18.7114C111.524 18.9117 112.37 19.1306 112.832 19.3629C113.136 19.5151 113.319 19.734 113.372 20.009C113.448 20.3855 113.273 20.7646 113.163 20.8848C112.553 21.547 111.626 21.8006 110.525 21.6618C109.762 21.5657 108.954 21.1865 108.255 20.6285C107.624 20.1238 107.232 19.4937 107.232 19.4937L104.022 21.1518L103.801 21.2666L103.925 21.4722C104.057 21.6938 104.559 22.4788 105.467 23.2611C107.533 25.0447 109.727 25.2609 110.667 25.2609C110.7 25.2609 110.732 25.2609 110.761 25.2609C110.775 25.2609 110.783 25.2609 110.791 25.2609C111.881 25.2609 112.891 25.0901 113.794 24.751C114.707 24.4092 115.47 23.9099 116.056 23.2718C117.079 22.1584 117.455 20.7353 117.117 19.2641V19.2694Z" fill="#9aa3b2"/>
<path d="M84.0633 8.28237C79.3276 8.28237 75.489 12.0978 75.489 16.805C75.489 21.5123 79.3276 25.3277 84.0633 25.3277C87.0665 25.3277 89.7097 23.7924 91.2408 21.4695L88.0281 19.6246C87.1444 20.8501 85.6992 21.6484 84.0633 21.6484C81.9278 21.6484 80.1146 20.284 79.4538 18.3857H88.6728V18.391H92.4899C92.5866 17.8757 92.6403 17.347 92.6403 16.8024C92.6403 12.0951 88.8018 8.2797 84.066 8.2797L84.0633 8.28237ZM79.3733 15.6115C79.4538 15.2938 79.6687 14.7331 79.709 14.6263C79.7144 14.613 79.7198 14.6023 79.7251 14.5916C80.5337 13.0296 82.1723 11.9616 84.0633 11.9616H84.0902C86.3654 11.9616 88.2753 13.5156 88.8071 15.6115H79.3733Z" fill="#9aa3b2"/>
<path d="M126.65 8.36247C125.146 8.36247 124.128 8.6802 123.048 9.45183V3.40159H119.244V24.9112H123.048V15.0588L123.053 14.912C123.048 13.1364 124.912 12.0471 126.637 12.0818C127.754 12.1058 129.377 13.2112 129.5 15.0028V24.9085H133.384V15.4006C133.384 11.3422 130.733 8.36247 126.65 8.36247Z" fill="#9aa3b2"/>
<path d="M71.6317 24.9112V12.6425H74.479V8.82706H71.6317V5.58568H67.8334V8.82706H65.4722V12.6425H67.8334V24.9299L71.6317 24.9112Z" fill="#9aa3b2"/>
</svg>