<svg class="logo-svg" preserveAspectRatio="xMidYMid meet" xmlns="http://www.w3.org/2000/svg" version="1.1" xmlns:xlink="http://www.w3.org/1999/xlink" viewBox="0 0 300 150">
  
  <defs>
    <style>
      .st0 {
        fill:#9aa3b2;
      }

      .st1 {
        fill:#9aa3b2;
      }

      .st2 {
        fill:#9aa3b2;
      }

      .st3 {
        fill:#9aa3b2;
      }

      .st4 {
        fill:#9aa3b2;
      }

      .st5 {
        display: none;
      }

      .st6 {
        fill:#9aa3b2;
      }
    </style>
  </defs>
  <g id="Layer_4" class="st5">
    
  </g>
  <g id="Layer_2" class="st5">
    <g>
      <path class="st4" d="M205.88,31.36c15.72,1.23,27.13,5.81,33.55,12.55h17.93c-5.18-11.72-21.3-19.23-45.98-19.23-27.74,0-59.49,9.48-84.58,23.77,24.56-12.19,54.52-19.01,79.08-17.09Z"/>
      <path class="st0" d="M254.05,69.4c5.29-9.11,6.39-17.48,3.75-24.44h-17.41c5.6,6.59,6.71,15.07,2.75,24.44h10.91Z"/>
      <path class="st2" d="M242.67,70.44c-1.27,2.77-2.98,5.61-5.14,8.5-4.14,5.54-9.7,10.9-16.31,15.9h8.35c7.84-5.72,14.56-11.94,19.67-18.44,1.59-2.02,2.98-4.01,4.18-5.97h-10.75Z"/>
      <path class="st3" d="M196.58,113.28c11.48-4.89,22.25-10.79,31.54-17.39h-8.31c-9.08,6.64-20,12.6-31.86,17.39h8.63Z"/>
      <path class="st6" d="M185.29,114.32c-17.16,6.59-36.1,10.73-54.19,11-22.19.33-37.94-5.34-45.26-14.55,6.15,10.47,21.78,17.05,44.85,17.05,20.34,0,42.88-5.11,63.38-13.49h-8.78Z"/>
      <path class="st4" d="M199.45,34.22c-23.3-.39-50.04,6.52-71.97,17.52,20.86-10.08,46.13-16.51,68.89-16.22,39.14.5,53.99,20.26,33.5,44.55-20.4,24.18-67.17,42.9-104.61,41.8-19.36-.57-32.62-6.11-38.29-14.57,5.49,9.1,19.4,14.96,39.99,15.24,38.88.53,86.31-19.02,106.07-43.31,19.74-24.27,4.71-44.37-33.57-45.01Z"/>
      <g>
        <path d="M20.06,81.38c-.55,0-.74-.25-.74-.8v-19.28c0-.55.18-.8.74-.8h5.62c5.56,0,7.43,2.06,7.43,4.64v1.81c0,1.5-.71,2.7-2.3,3.44,2.09.74,3.25,2.03,3.25,3.71v2.43c0,2.58-1.87,4.85-7.43,4.85h-6.57ZM23.46,63.81v5.34h2.3c1.96,0,3.22-.74,3.22-2.3v-1.07c0-1.54-1.26-1.96-3.32-1.96h-2.21ZM23.46,72.29v5.77h3.16c2.06,0,3.35-.74,3.35-2.27v-1.38c0-1.32-1.29-2.12-3.35-2.12h-3.16Z"/>
        <path d="M40.62,75.88c0,1.54,1.23,2.3,3.29,2.3s3.35-.77,3.35-2.3v-14.58c0-.55.18-.8.74-.8h2.67c.55,0,.71.25.71.8v15.32c0,2.58-1.9,5-7.46,5s-7.46-2.43-7.46-5v-15.32c0-.55.21-.8.77-.8h2.67c.52,0,.74.25.74.8v14.58Z"/>
        <path d="M58.73,77.94h6.85c.52,0,.77.18.77.74v1.93c0,.55-.25.77-.77.77h-10.35c-.46,0-.65-.28-.65-.8v-19.28c0-.55.18-.8.74-.8h2.67c.55,0,.74.25.74.8v16.64Z"/>
        <path d="M83.66,80.61c.28.37.15.77-.4.77h-3.41c-.52,0-.83-.4-1.1-.77l-5.77-8.04h-.52v8.04c0,.52-.18.77-.74.77h-2.67c-.55,0-.74-.25-.74-.77v-19.34c0-.52.18-.77.74-.77h2.67c.55,0,.74.25.74.77v8.26h.49l5.46-8.26c.28-.43.68-.77,1.23-.77h2.86c.55,0,.64.37.37.77l-6.42,9.49,7.21,9.85Z"/>
        <path d="M105.26,80.61c0,.52-.18.77-.74.77h-2.43c-.4,0-.55-.09-.71-.37l-5.93-10.16c-.83-1.38-1.2-2.39-1.23-2.49v12.25c0,.52-.18.77-.74.77h-2.43c-.55,0-.74-.25-.74-.77v-19.34c0-.52.18-.77.74-.77h2.43c.34,0,.52.09.65.31l6.17,10.59c.52.89,1.04,2.15,1.04,2.15v-12.28c0-.52.18-.77.74-.77h2.43c.55,0,.74.25.74.77v19.34Z"/>
        <path d="M112.6,75.88c0,1.54,1.23,2.3,3.29,2.3s3.35-.77,3.35-2.3v-14.58c0-.55.18-.8.74-.8h2.67c.55,0,.71.25.71.8v15.32c0,2.58-1.9,5-7.46,5s-7.46-2.43-7.46-5v-15.32c0-.55.21-.8.77-.8h2.67c.52,0,.74.25.74.8v14.58Z"/>
        <path d="M138.41,60.5c.52,0,.77.18.77.74v1.93c0,.55-.25.77-.77.77h-4.36v16.64c0,.55-.18.8-.74.8h-2.67c-.55,0-.77-.25-.77-.8v-16.64h-4.36c-.55,0-.77-.21-.77-.77v-1.93c0-.55.21-.74.77-.74h12.89Z"/>
        <path d="M144.92,73.42v7.15c0,.55-.18.8-.74.8h-2.67c-.55,0-.74-.25-.74-.8v-19.28c0-.55.18-.8.74-.8h6.45c5.56,0,7.43,2.43,7.43,5v2.92c0,1.81-.92,3.53-3.38,4.42l3.32,7.74c.22.49-.15.8-.71.8h-2.7c-.43,0-.55-.31-.77-.8l-3.01-7.15h-3.22ZM144.92,63.94v6.05h3.04c2.06,0,3.32-.77,3.32-2.3v-1.44c0-1.54-1.26-2.3-3.32-2.3h-3.04Z"/>
        <path d="M162.42,80.58c0,.55-.18.8-.74.8h-2.67c-.55,0-.74-.25-.74-.8v-19.28c0-.55.18-.8.74-.8h2.67c.55,0,.74.25.74.8v19.28Z"/>
        <path d="M166.5,81.38c-.55,0-.74-.25-.74-.8v-19.28c0-.55.18-.8.74-.8h10.5c.52,0,.77.18.77.74v1.93c0,.55-.25.77-.77.77h-7.09v4.97h6.57c.55,0,.8.18.8.74v1.84c0,.52-.25.74-.8.74h-6.57v5.71h7.4c.55,0,.77.18.77.74v1.93c0,.55-.21.77-.77.77h-10.81Z"/>
        <path d="M195.47,80.61c0,.52-.18.77-.74.77h-2.43c-.4,0-.55-.09-.71-.37l-5.92-10.16c-.83-1.38-1.2-2.39-1.23-2.49v12.25c0,.52-.18.77-.74.77h-2.43c-.55,0-.74-.25-.74-.77v-19.34c0-.52.18-.77.74-.77h2.43c.34,0,.52.09.64.31l6.17,10.59c.52.89,1.04,2.15,1.04,2.15v-12.28c0-.52.18-.77.74-.77h2.43c.55,0,.74.25.74.77v19.34Z"/>
        <path d="M210.67,60.5c.52,0,.77.18.77.74v1.93c0,.55-.25.77-.77.77h-4.36v16.64c0,.55-.18.8-.74.8h-2.67c-.55,0-.77-.25-.77-.8v-16.64h-4.36c-.55,0-.77-.21-.77-.77v-1.93c0-.55.21-.74.77-.74h12.89Z"/>
        <path d="M222.73,65.81c0-1.5-1.01-2.21-2.98-2.21s-3.01.71-3.01,2.21v.46c0,1.07.77,1.47,1.26,1.66l5.34,1.9c2.09.74,3.62,2.15,3.62,4.42v2.36c0,2.58-1.81,5-7.31,5s-7.34-2.43-7.34-5v-1.93c0-.55.21-.8.74-.8h2.58c.55,0,.74.25.74.8v1.38c0,1.5,1.17,2.21,3.25,2.21s3.25-.71,3.25-2.21v-.98c0-1.26-1.23-1.75-2.61-2.27l-4.76-1.78c-1.47-.55-2.79-2.12-2.79-3.96v-1.81c0-2.58,1.6-5,6.97-5s7.09,2.43,7.09,5v1.26c0,.52-.21.77-.77.77h-2.58c-.52,0-.71-.25-.71-.77v-.71Z"/>
      </g>
      <g>
        <path d="M52.98,93.75v4.32c0,.17-.05.26-.25.26h-.73c-.18,0-.25-.09-.25-.26v-11.38c0-.17.07-.26.23-.26h3.47c2.91,0,3.8,1.16,3.8,2.56v2.19c0,1.4-.89,2.57-3.8,2.57h-2.47ZM52.98,87.5v5.18h2.47c1.87,0,2.56-.68,2.56-1.7v-1.8c0-1.02-.68-1.68-2.56-1.68h-2.47Z"/>
        <path d="M62.27,95.72c0,1.01.68,1.68,2.52,1.68s2.57-.67,2.57-1.68v-9.03c0-.17.07-.26.25-.26h.73c.19,0,.25.09.25.26v9.22c0,1.4-.89,2.55-3.8,2.55s-3.76-1.15-3.76-2.55v-9.22c0-.17.07-.26.25-.26h.75c.17,0,.25.09.25.26v9.03Z"/>
        <path d="M72.37,93.48v4.58c0,.17-.05.26-.25.26h-.73c-.18,0-.25-.09-.25-.26v-11.38c0-.17.07-.26.23-.26h3.47c2.91,0,3.8,1.16,3.8,2.56v1.96c0,1.08-.54,2.03-2.17,2.38l2.28,4.74c.07.16-.05.26-.25.26h-.73c-.19,0-.23-.11-.31-.26l-2.17-4.58h-2.91ZM72.37,87.5v4.94h2.47c1.87,0,2.56-.67,2.56-1.7v-1.56c0-1.02-.68-1.68-2.56-1.68h-2.47Z"/>
        <path d="M81.17,98.33c-.16,0-.23-.09-.23-.26v-11.38c0-.17.07-.26.25-.26h5.97c.18,0,.26.07.26.26v.54c0,.19-.09.26-.26.26h-4.99v4.08h4.67c.19,0,.26.07.26.26v.51c0,.19-.07.26-.26.26h-4.67v4.66h5.2c.18,0,.26.07.26.25v.56c0,.19-.09.26-.26.26h-6.2Z"/>
        <path d="M96.41,87.34c-1.84,0-2.42.65-2.42,1.66v.52c0,.86.58,1.19,1.02,1.37l3.29,1.24c.95.35,1.82,1.05,1.82,2.28v1.5c0,1.4-.91,2.55-3.75,2.55s-3.75-1.15-3.75-2.55v-.96c0-.19.07-.26.25-.26h.72c.18,0,.25.07.25.26v.8c0,1.02.67,1.66,2.52,1.66s2.54-.65,2.54-1.66v-1.08c0-.91-.77-1.28-1.45-1.54l-3.13-1.21c-.74-.28-1.52-1.02-1.52-2.1v-.98c0-1.4.82-2.55,3.61-2.55s3.64,1.16,3.64,2.55v.82c0,.17-.07.26-.26.26h-.72c-.18,0-.25-.09-.25-.26v-.67c0-1.02-.58-1.66-2.4-1.66Z"/>
        <path d="M103.47,95.72c0,1.01.68,1.68,2.52,1.68s2.57-.67,2.57-1.68v-9.03c0-.17.07-.26.25-.26h.73c.19,0,.25.09.25.26v9.22c0,1.4-.89,2.55-3.8,2.55s-3.76-1.15-3.76-2.55v-9.22c0-.17.07-.26.25-.26h.75c.17,0,.25.09.25.26v9.03Z"/>
        <path d="M113.57,93.75v4.32c0,.17-.05.26-.25.26h-.73c-.18,0-.25-.09-.25-.26v-11.38c0-.17.07-.26.23-.26h3.47c2.91,0,3.8,1.16,3.8,2.56v2.19c0,1.4-.89,2.57-3.8,2.57h-2.47ZM113.57,87.5v5.18h2.47c1.87,0,2.56-.68,2.56-1.7v-1.8c0-1.02-.68-1.68-2.56-1.68h-2.47Z"/>
        <path d="M122.94,93.75v4.32c0,.17-.05.26-.25.26h-.73c-.18,0-.25-.09-.25-.26v-11.38c0-.17.07-.26.23-.26h3.47c2.91,0,3.8,1.16,3.8,2.56v2.19c0,1.4-.89,2.57-3.8,2.57h-2.47ZM122.94,87.5v5.18h2.47c1.87,0,2.56-.68,2.56-1.7v-1.8c0-1.02-.68-1.68-2.56-1.68h-2.47Z"/>
        <path d="M132.34,97.26h4.9c.17,0,.25.07.25.25v.56c0,.19-.07.26-.25.26h-5.93c-.14,0-.21-.09-.21-.26v-11.38c0-.17.07-.26.25-.26h.75c.17,0,.25.09.25.26v10.57Z"/>
        <path d="M139.37,98.33c-.16,0-.23-.09-.23-.26v-11.38c0-.17.07-.26.25-.26h5.97c.18,0,.26.07.26.26v.54c0,.19-.09.26-.26.26h-4.99v4.08h4.67c.19,0,.26.07.26.26v.51c0,.19-.07.26-.26.26h-4.67v4.66h5.2c.18,0,.26.07.26.25v.56c0,.19-.09.26-.26.26h-6.2Z"/>
        <path d="M157.33,98.07c0,.17-.07.26-.26.26h-.7c-.19,0-.26-.09-.26-.26v-9.03c-.07.3-.23.81-.35,1.09l-2.54,6.12c-.07.18-.17.26-.35.26h-.65c-.18,0-.26-.09-.33-.26l-2.64-6.28c-.07-.16-.19-.52-.3-.91v9.01c0,.17-.07.26-.24.26h-.67c-.19,0-.26-.09-.26-.26v-11.38c0-.17.07-.26.26-.26h.67c.12,0,.19.05.23.14l3.31,7.74c.17.42.3.82.31.89.02-.05.19-.54.33-.88l3.24-7.75c.04-.1.12-.14.25-.14h.7c.19,0,.26.09.26.26v11.38Z"/>
        <path d="M160.19,98.33c-.16,0-.23-.09-.23-.26v-11.38c0-.17.07-.26.25-.26h5.97c.17,0,.26.07.26.26v.54c0,.19-.09.26-.26.26h-4.99v4.08h4.67c.19,0,.26.07.26.26v.51c0,.19-.07.26-.26.26h-4.67v4.66h5.2c.17,0,.26.07.26.25v.56c0,.19-.09.26-.26.26h-6.2Z"/>
        <path d="M176.15,98.07c0,.17-.05.26-.25.26h-.67c-.12,0-.19-.04-.25-.12l-4.64-8.23c-.38-.67-.58-1.08-.59-1.14v9.22c0,.17-.07.26-.25.26h-.67c-.19,0-.26-.09-.26-.26v-11.38c0-.17.07-.26.26-.26h.67c.12,0,.17.04.21.11l4.74,8.35c.14.25.52,1.05.52,1.05v-9.24c0-.17.07-.26.25-.26h.67c.19,0,.25.09.25.26v11.38Z"/>
        <path d="M185.07,86.43c.17,0,.26.07.26.26v.54c0,.19-.09.26-.26.26h-3.01v10.57c0,.17-.07.26-.25.26h-.75c-.19,0-.26-.09-.26-.26v-10.57h-3.01c-.19,0-.26-.07-.26-.26v-.54c0-.19.07-.26.26-.26h7.28Z"/>
        <path d="M190.09,87.34c-1.84,0-2.42.65-2.42,1.66v.52c0,.86.58,1.19,1.02,1.37l3.29,1.24c.95.35,1.82,1.05,1.82,2.28v1.5c0,1.4-.91,2.55-3.75,2.55s-3.75-1.15-3.75-2.55v-.96c0-.19.07-.26.25-.26h.72c.17,0,.25.07.25.26v.8c0,1.02.67,1.66,2.52,1.66s2.54-.65,2.54-1.66v-1.08c0-.91-.77-1.28-1.45-1.54l-3.13-1.21c-.74-.28-1.52-1.02-1.52-2.1v-.98c0-1.4.82-2.55,3.61-2.55s3.64,1.16,3.64,2.55v.82c0,.17-.07.26-.26.26h-.72c-.17,0-.25-.09-.25-.26v-.67c0-1.02-.58-1.66-2.4-1.66Z"/>
      </g>
    </g>
  </g>
  <g id="outlines">
    <path class="st4" d="M205.88,31.36c15.72,1.23,27.13,5.81,33.55,12.55h17.93c-5.18-11.72-21.3-19.23-45.98-19.23-27.74,0-59.49,9.48-84.58,23.77,24.56-12.19,54.52-19.01,79.08-17.09Z"/>
    <path class="st0" d="M254.05,69.4c5.29-9.11,6.39-17.48,3.75-24.44h-17.41c5.6,6.59,6.71,15.07,2.75,24.44h10.91Z"/>
    <path class="st2" d="M242.67,70.44c-1.27,2.77-2.98,5.61-5.14,8.5-4.14,5.54-9.7,10.9-16.31,15.9h8.35c7.84-5.72,14.56-11.94,19.67-18.44,1.59-2.02,2.98-4.01,4.18-5.97h-10.75Z"/>
    <path class="st3" d="M196.58,113.28c11.48-4.89,22.25-10.79,31.54-17.39h-8.31c-9.08,6.64-20,12.6-31.86,17.39h8.63Z"/>
    <path class="st6" d="M185.29,114.32c-17.16,6.59-36.1,10.73-54.19,11-22.19.33-37.94-5.34-45.26-14.55,6.15,10.47,21.78,17.05,44.85,17.05,20.34,0,42.88-5.11,63.38-13.49h-8.78Z"/>
    <path class="st4" d="M199.45,34.22c-23.3-.39-50.04,6.52-71.97,17.52,20.86-10.08,46.13-16.51,68.89-16.22,39.14.5,53.99,20.26,33.5,44.55-20.4,24.18-67.17,42.9-104.61,41.8-19.36-.57-32.62-6.11-38.29-14.57,5.49,9.1,19.4,14.96,39.99,15.24,38.88.53,86.31-19.02,106.07-43.31,19.74-24.27,4.71-44.37-33.57-45.01Z"/>
    <g>
      <path class="st1" d="M20.06,81.38c-.55,0-.74-.25-.74-.8v-19.28c0-.55.18-.8.74-.8h5.62c5.56,0,7.43,2.06,7.43,4.64v1.81c0,1.5-.71,2.7-2.3,3.44,2.09.74,3.25,2.03,3.25,3.71v2.43c0,2.58-1.87,4.85-7.43,4.85h-6.57ZM23.46,63.81v5.34h2.3c1.96,0,3.22-.74,3.22-2.3v-1.07c0-1.54-1.26-1.96-3.32-1.96h-2.21ZM23.46,72.29v5.77h3.16c2.06,0,3.35-.74,3.35-2.27v-1.38c0-1.32-1.29-2.12-3.35-2.12h-3.16Z"/>
      <path class="st1" d="M40.62,75.88c0,1.54,1.23,2.3,3.29,2.3s3.35-.77,3.35-2.3v-14.58c0-.55.18-.8.74-.8h2.67c.55,0,.71.25.71.8v15.32c0,2.58-1.9,5-7.46,5s-7.46-2.43-7.46-5v-15.32c0-.55.21-.8.77-.8h2.67c.52,0,.74.25.74.8v14.58Z"/>
      <path class="st1" d="M58.73,77.94h6.85c.52,0,.77.18.77.74v1.93c0,.55-.25.77-.77.77h-10.35c-.46,0-.65-.28-.65-.8v-19.28c0-.55.18-.8.74-.8h2.67c.55,0,.74.25.74.8v16.64Z"/>
      <path class="st1" d="M83.66,80.61c.28.37.15.77-.4.77h-3.41c-.52,0-.83-.4-1.1-.77l-5.77-8.04h-.52v8.04c0,.52-.18.77-.74.77h-2.67c-.55,0-.74-.25-.74-.77v-19.34c0-.52.18-.77.74-.77h2.67c.55,0,.74.25.74.77v8.26h.49l5.46-8.26c.28-.43.68-.77,1.23-.77h2.86c.55,0,.64.37.37.77l-6.42,9.49,7.21,9.85Z"/>
      <path class="st1" d="M105.26,80.61c0,.52-.18.77-.74.77h-2.43c-.4,0-.55-.09-.71-.37l-5.93-10.16c-.83-1.38-1.2-2.39-1.23-2.49v12.25c0,.52-.18.77-.74.77h-2.43c-.55,0-.74-.25-.74-.77v-19.34c0-.52.18-.77.74-.77h2.43c.34,0,.52.09.65.31l6.17,10.59c.52.89,1.04,2.15,1.04,2.15v-12.28c0-.52.18-.77.74-.77h2.43c.55,0,.74.25.74.77v19.34Z"/>
      <path class="st1" d="M112.6,75.88c0,1.54,1.23,2.3,3.29,2.3s3.35-.77,3.35-2.3v-14.58c0-.55.18-.8.74-.8h2.67c.55,0,.71.25.71.8v15.32c0,2.58-1.9,5-7.46,5s-7.46-2.43-7.46-5v-15.32c0-.55.21-.8.77-.8h2.67c.52,0,.74.25.74.8v14.58Z"/>
      <path class="st1" d="M138.41,60.5c.52,0,.77.18.77.74v1.93c0,.55-.25.77-.77.77h-4.36v16.64c0,.55-.18.8-.74.8h-2.67c-.55,0-.77-.25-.77-.8v-16.64h-4.36c-.55,0-.77-.21-.77-.77v-1.93c0-.55.21-.74.77-.74h12.89Z"/>
      <path class="st1" d="M144.92,73.42v7.15c0,.55-.18.8-.74.8h-2.67c-.55,0-.74-.25-.74-.8v-19.28c0-.55.18-.8.74-.8h6.45c5.56,0,7.43,2.43,7.43,5v2.92c0,1.81-.92,3.53-3.38,4.42l3.32,7.74c.22.49-.15.8-.71.8h-2.7c-.43,0-.55-.31-.77-.8l-3.01-7.15h-3.22ZM144.92,63.94v6.05h3.04c2.06,0,3.32-.77,3.32-2.3v-1.44c0-1.54-1.26-2.3-3.32-2.3h-3.04Z"/>
      <path class="st1" d="M162.42,80.58c0,.55-.18.8-.74.8h-2.67c-.55,0-.74-.25-.74-.8v-19.28c0-.55.18-.8.74-.8h2.67c.55,0,.74.25.74.8v19.28Z"/>
      <path class="st1" d="M166.5,81.38c-.55,0-.74-.25-.74-.8v-19.28c0-.55.18-.8.74-.8h10.5c.52,0,.77.18.77.74v1.93c0,.55-.25.77-.77.77h-7.09v4.97h6.57c.55,0,.8.18.8.74v1.84c0,.52-.25.74-.8.74h-6.57v5.71h7.4c.55,0,.77.18.77.74v1.93c0,.55-.21.77-.77.77h-10.81Z"/>
      <path class="st1" d="M195.47,80.61c0,.52-.18.77-.74.77h-2.43c-.4,0-.55-.09-.71-.37l-5.92-10.16c-.83-1.38-1.2-2.39-1.23-2.49v12.25c0,.52-.18.77-.74.77h-2.43c-.55,0-.74-.25-.74-.77v-19.34c0-.52.18-.77.74-.77h2.43c.34,0,.52.09.64.31l6.17,10.59c.52.89,1.04,2.15,1.04,2.15v-12.28c0-.52.18-.77.74-.77h2.43c.55,0,.74.25.74.77v19.34Z"/>
      <path class="st1" d="M210.67,60.5c.52,0,.77.18.77.74v1.93c0,.55-.25.77-.77.77h-4.36v16.64c0,.55-.18.8-.74.8h-2.67c-.55,0-.77-.25-.77-.8v-16.64h-4.36c-.55,0-.77-.21-.77-.77v-1.93c0-.55.21-.74.77-.74h12.89Z"/>
      <path class="st1" d="M222.73,65.81c0-1.5-1.01-2.21-2.98-2.21s-3.01.71-3.01,2.21v.46c0,1.07.77,1.47,1.26,1.66l5.34,1.9c2.09.74,3.62,2.15,3.62,4.42v2.36c0,2.58-1.81,5-7.31,5s-7.34-2.43-7.34-5v-1.93c0-.55.21-.8.74-.8h2.58c.55,0,.74.25.74.8v1.38c0,1.5,1.17,2.21,3.25,2.21s3.25-.71,3.25-2.21v-.98c0-1.26-1.23-1.75-2.61-2.27l-4.76-1.78c-1.47-.55-2.79-2.12-2.79-3.96v-1.81c0-2.58,1.6-5,6.97-5s7.09,2.43,7.09,5v1.26c0,.52-.21.77-.77.77h-2.58c-.52,0-.71-.25-.71-.77v-.71Z"/>
    </g>
    <g>
      <path class="st1" d="M52.98,93.75v4.32c0,.17-.05.26-.25.26h-.73c-.18,0-.25-.09-.25-.26v-11.38c0-.17.07-.26.23-.26h3.47c2.91,0,3.8,1.16,3.8,2.56v2.19c0,1.4-.89,2.57-3.8,2.57h-2.47ZM52.98,87.5v5.18h2.47c1.87,0,2.56-.68,2.56-1.7v-1.8c0-1.02-.68-1.68-2.56-1.68h-2.47Z"/>
      <path class="st1" d="M62.27,95.72c0,1.01.68,1.68,2.52,1.68s2.57-.67,2.57-1.68v-9.03c0-.17.07-.26.25-.26h.73c.19,0,.25.09.25.26v9.22c0,1.4-.89,2.55-3.8,2.55s-3.76-1.15-3.76-2.55v-9.22c0-.17.07-.26.25-.26h.75c.17,0,.25.09.25.26v9.03Z"/>
      <path class="st1" d="M72.37,93.48v4.58c0,.17-.05.26-.25.26h-.73c-.18,0-.25-.09-.25-.26v-11.38c0-.17.07-.26.23-.26h3.47c2.91,0,3.8,1.16,3.8,2.56v1.96c0,1.08-.54,2.03-2.17,2.38l2.28,4.74c.07.16-.05.26-.25.26h-.73c-.19,0-.23-.11-.31-.26l-2.17-4.58h-2.91ZM72.37,87.5v4.94h2.47c1.87,0,2.56-.67,2.56-1.7v-1.56c0-1.02-.68-1.68-2.56-1.68h-2.47Z"/>
      <path class="st1" d="M81.17,98.33c-.16,0-.23-.09-.23-.26v-11.38c0-.17.07-.26.25-.26h5.97c.18,0,.26.07.26.26v.54c0,.19-.09.26-.26.26h-4.99v4.08h4.67c.19,0,.26.07.26.26v.51c0,.19-.07.26-.26.26h-4.67v4.66h5.2c.18,0,.26.07.26.25v.56c0,.19-.09.26-.26.26h-6.2Z"/>
      <path class="st1" d="M96.41,87.34c-1.84,0-2.42.65-2.42,1.66v.52c0,.86.58,1.19,1.02,1.37l3.29,1.24c.95.35,1.82,1.05,1.82,2.28v1.5c0,1.4-.91,2.55-3.75,2.55s-3.75-1.15-3.75-2.55v-.96c0-.19.07-.26.25-.26h.72c.18,0,.25.07.25.26v.8c0,1.02.67,1.66,2.52,1.66s2.54-.65,2.54-1.66v-1.08c0-.91-.77-1.28-1.45-1.54l-3.13-1.21c-.74-.28-1.52-1.02-1.52-2.1v-.98c0-1.4.82-2.55,3.61-2.55s3.64,1.16,3.64,2.55v.82c0,.17-.07.26-.26.26h-.72c-.18,0-.25-.09-.25-.26v-.67c0-1.02-.58-1.66-2.4-1.66Z"/>
      <path class="st1" d="M103.47,95.72c0,1.01.68,1.68,2.52,1.68s2.57-.67,2.57-1.68v-9.03c0-.17.07-.26.25-.26h.73c.19,0,.25.09.25.26v9.22c0,1.4-.89,2.55-3.8,2.55s-3.76-1.15-3.76-2.55v-9.22c0-.17.07-.26.25-.26h.75c.17,0,.25.09.25.26v9.03Z"/>
      <path class="st1" d="M113.57,93.75v4.32c0,.17-.05.26-.25.26h-.73c-.18,0-.25-.09-.25-.26v-11.38c0-.17.07-.26.23-.26h3.47c2.91,0,3.8,1.16,3.8,2.56v2.19c0,1.4-.89,2.57-3.8,2.57h-2.47ZM113.57,87.5v5.18h2.47c1.87,0,2.56-.68,2.56-1.7v-1.8c0-1.02-.68-1.68-2.56-1.68h-2.47Z"/>
      <path class="st1" d="M122.94,93.75v4.32c0,.17-.05.26-.25.26h-.73c-.18,0-.25-.09-.25-.26v-11.38c0-.17.07-.26.23-.26h3.47c2.91,0,3.8,1.16,3.8,2.56v2.19c0,1.4-.89,2.57-3.8,2.57h-2.47ZM122.94,87.5v5.18h2.47c1.87,0,2.56-.68,2.56-1.7v-1.8c0-1.02-.68-1.68-2.56-1.68h-2.47Z"/>
      <path class="st1" d="M132.34,97.26h4.9c.17,0,.25.07.25.25v.56c0,.19-.07.26-.25.26h-5.93c-.14,0-.21-.09-.21-.26v-11.38c0-.17.07-.26.25-.26h.75c.17,0,.25.09.25.26v10.57Z"/>
      <path class="st1" d="M139.37,98.33c-.16,0-.23-.09-.23-.26v-11.38c0-.17.07-.26.25-.26h5.97c.18,0,.26.07.26.26v.54c0,.19-.09.26-.26.26h-4.99v4.08h4.67c.19,0,.26.07.26.26v.51c0,.19-.07.26-.26.26h-4.67v4.66h5.2c.18,0,.26.07.26.25v.56c0,.19-.09.26-.26.26h-6.2Z"/>
      <path class="st1" d="M157.33,98.07c0,.17-.07.26-.26.26h-.7c-.19,0-.26-.09-.26-.26v-9.03c-.07.3-.23.81-.35,1.09l-2.54,6.12c-.07.18-.17.26-.35.26h-.65c-.18,0-.26-.09-.33-.26l-2.64-6.28c-.07-.16-.19-.52-.3-.91v9.01c0,.17-.07.26-.24.26h-.67c-.19,0-.26-.09-.26-.26v-11.38c0-.17.07-.26.26-.26h.67c.12,0,.19.05.23.14l3.31,7.74c.17.42.3.82.31.89.02-.05.19-.54.33-.88l3.24-7.75c.04-.1.12-.14.25-.14h.7c.19,0,.26.09.26.26v11.38Z"/>
      <path class="st1" d="M160.19,98.33c-.16,0-.23-.09-.23-.26v-11.38c0-.17.07-.26.25-.26h5.97c.17,0,.26.07.26.26v.54c0,.19-.09.26-.26.26h-4.99v4.08h4.67c.19,0,.26.07.26.26v.51c0,.19-.07.26-.26.26h-4.67v4.66h5.2c.17,0,.26.07.26.25v.56c0,.19-.09.26-.26.26h-6.2Z"/>
      <path class="st1" d="M176.15,98.07c0,.17-.05.26-.25.26h-.67c-.12,0-.19-.04-.25-.12l-4.64-8.23c-.38-.67-.58-1.08-.59-1.14v9.22c0,.17-.07.26-.25.26h-.67c-.19,0-.26-.09-.26-.26v-11.38c0-.17.07-.26.26-.26h.67c.12,0,.17.04.21.11l4.74,8.35c.14.25.52,1.05.52,1.05v-9.24c0-.17.07-.26.25-.26h.67c.19,0,.25.09.25.26v11.38Z"/>
      <path class="st1" d="M185.07,86.43c.17,0,.26.07.26.26v.54c0,.19-.09.26-.26.26h-3.01v10.57c0,.17-.07.26-.25.26h-.75c-.19,0-.26-.09-.26-.26v-10.57h-3.01c-.19,0-.26-.07-.26-.26v-.54c0-.19.07-.26.26-.26h7.28Z"/>
      <path class="st1" d="M190.09,87.34c-1.84,0-2.42.65-2.42,1.66v.52c0,.86.58,1.19,1.02,1.37l3.29,1.24c.95.35,1.82,1.05,1.82,2.28v1.5c0,1.4-.91,2.55-3.75,2.55s-3.75-1.15-3.75-2.55v-.96c0-.19.07-.26.25-.26h.72c.17,0,.25.07.25.26v.8c0,1.02.67,1.66,2.52,1.66s2.54-.65,2.54-1.66v-1.08c0-.91-.77-1.28-1.45-1.54l-3.13-1.21c-.74-.28-1.52-1.02-1.52-2.1v-.98c0-1.4.82-2.55,3.61-2.55s3.64,1.16,3.64,2.55v.82c0,.17-.07.26-.26.26h-.72c-.17,0-.25-.09-.25-.26v-.67c0-1.02-.58-1.66-2.4-1.66Z"/>
    </g>
  </g>
</svg>