<svg class="logo-svg" preserveAspectRatio="xMidYMid meet" viewBox="0 0 158 33" fill="none" xmlns="http://www.w3.org/2000/svg">
<g clip-path="url(#clip0_2001_7070)">
<path d="M6.32423 17.3942C6.32423 20.1801 8.05599 20.6695 8.80894 20.6695C10.2772 20.6695 11.1431 19.4648 11.1431 18.3731C11.1431 17.2813 10.1266 16.7166 6.43717 15.1731C4.74305 14.4954 0.56423 12.8013 0.56423 8.28366C0.56423 3.76601 4.93129 0.867188 8.95952 0.867188C12.9878 0.867188 16.9407 2.56131 17.0536 8.32131H10.9925C10.8795 7.49307 10.6536 5.98719 8.77129 5.98719C6.88894 5.98719 6.66305 6.74013 6.66305 7.86954C6.66305 8.99895 7.30305 9.26248 11.6325 11.2201C16.1125 13.2154 17.2419 15.3237 17.2419 18.1095C17.2419 20.8954 15.2466 25.7895 8.84658 25.7895C2.44658 25.7895 -0.000476107 22.1001 0.187759 17.3942H6.28658H6.32423Z" fill="#9aa3b2"/>
<path d="M19.0117 7.3421H24.0564V9.2621C24.6588 8.39622 25.8258 6.73975 29.0258 6.73975C35.087 6.73975 35.727 11.6715 35.727 14.1186V25.375H30.3435V15.5492C30.3435 13.5539 29.9294 11.8221 27.52 11.8221C25.1105 11.8221 24.4329 13.7421 24.4329 15.5868V25.375H19.0494V7.3421H19.0117Z" fill="#9aa3b2"/>
<path d="M42.3894 16.4151C42.3894 18.0716 43.6317 20.9327 46.8694 20.9327C50.107 20.9327 49.9564 20.0292 50.6341 18.9374C51.0859 18.2221 51.3117 17.4316 51.387 16.641C51.4623 15.8127 51.2741 15.0222 50.9353 14.2692C50.3329 13.0269 49.1282 11.7845 46.8317 11.7845C44.5353 11.7845 42.3894 14.3821 42.3894 16.4151ZM56.7706 25.3374H51.387V23.3798C50.4082 25.1492 48.187 25.9398 46.0788 25.9398C40.3564 25.9398 37.0059 21.4598 37.0059 16.3021C37.0059 11.1445 41.26 6.70215 46.0788 6.70215C50.8976 6.70215 50.7094 8.13274 51.387 9.2245V7.3045H56.7706V25.3374Z" fill="#9aa3b2"/>
<path d="M125.591 16.3401C124.198 22.0248 119.266 25.7895 113.431 25.7895C107.595 25.7895 100.781 19.766 100.781 13.2907C100.781 6.81542 105.525 0.867188 113.393 0.867188C121.261 0.867188 124.951 6.66483 125.591 10.4295H119.153C118.475 8.66013 116.668 6.25072 113.355 6.25072C110.042 6.25072 106.918 9.86483 106.918 13.2531C106.918 16.6413 109.402 20.406 113.393 20.406C117.384 20.406 118.777 17.206 119.153 16.3401H125.591Z" fill="#9aa3b2"/>
<path d="M131.915 16.4151C131.915 18.0716 133.157 20.9327 136.395 20.9327C139.632 20.9327 139.482 20.0292 140.159 18.9374C140.611 18.2221 140.837 17.4316 140.912 16.641C140.988 15.8127 140.799 15.0222 140.461 14.2692C139.858 13.0269 138.654 11.7845 136.357 11.7845C134.061 11.7845 131.915 14.3821 131.915 16.4151ZM146.296 25.3374H140.912V23.3798C139.934 25.1492 137.712 25.9398 135.604 25.9398C129.882 25.9398 126.531 21.4598 126.531 16.3021C126.531 11.1445 130.785 6.70215 135.604 6.70215C140.423 6.70215 140.197 8.13274 140.912 9.2245V7.3045H146.296V25.3374Z" fill="#9aa3b2"/>
<path d="M148.254 7.34215H153.336V9.33744C153.863 8.35862 154.805 6.70215 157.929 6.70215V12.1233H157.741C154.993 12.1233 153.675 13.1398 153.675 15.6621V25.3374H148.292V7.3045L148.254 7.34215Z" fill="#9aa3b2"/>
<path d="M69.6465 6.7022C66.8983 6.7022 65.0912 7.94455 63.9241 9.29984V7.30456H58.8418V31.3234H64.2253V23.681C64.8653 24.3587 66.4089 25.9022 69.6465 25.9022C74.7665 25.9022 78.4183 21.6481 78.4183 16.4528C78.4183 11.2575 76.0089 6.66455 69.6089 6.66455M68.9689 20.7822C66.5218 20.7822 64.5265 18.7869 64.5265 16.3398C64.5265 13.8928 66.5218 11.8975 68.9689 11.8975C71.4159 11.8975 73.4112 13.8928 73.4112 16.3398C73.4112 18.7869 71.4159 20.7822 68.9689 20.7822Z" fill="#9aa3b2"/>
<path d="M90.7305 6.7022C87.9823 6.7022 86.1752 7.94455 85.0081 9.29984V7.30456H79.9258V31.3234H85.3093V23.681C85.9493 24.3587 87.4928 25.9022 90.7305 25.9022C95.8505 25.9022 99.5022 21.6481 99.5022 16.4528C99.5022 11.2575 97.0928 6.66455 90.6928 6.66455M90.0152 20.7822C87.5681 20.7822 85.5728 18.7869 85.5728 16.3398C85.5728 13.8928 87.5681 11.8975 90.0152 11.8975C92.4623 11.8975 94.4575 13.8928 94.4575 16.3398C94.4575 18.7869 92.4623 20.7822 90.0152 20.7822Z" fill="#9aa3b2"/>
</g>
<defs>
<clipPath id="clip0_2001_7070">
<rect width="157.741" height="32" fill="#9aa3b2" transform="translate(0 0.0952148)"/>
</clipPath>
</defs>
</svg>