<svg class="logo-svg" preserveAspectRatio="xMidYMid meet" viewBox="0 0 89 24" fill="none" xmlns="http://www.w3.org/2000/svg">
<path d="M3.15752 19.1991C3.15752 19.2624 3.15752 19.3257 3.15752 19.3257C3.22079 19.7686 3.22079 20.2115 3.28406 20.5912C3.34734 20.9708 3.47389 21.2872 3.66371 21.6035C3.72698 21.7301 3.85353 21.7301 3.9168 21.6668C4.04335 21.6035 4.04335 21.5403 3.98008 21.4137C3.91681 21.2872 3.91681 21.1606 3.85353 21.0341C3.66371 20.4646 3.47389 19.8951 3.28406 19.2624C3.28406 19.2624 3.22079 19.2624 3.15752 19.1991ZM1.82876 12.7452C1.76548 12.8084 1.76548 12.8717 1.76548 12.8717C1.76548 14.0106 1.76548 15.2129 1.76548 16.3518C1.82876 16.4151 1.82876 16.5416 1.89203 16.5416C1.95531 16.5416 2.08185 16.4783 2.08185 16.4151C2.2084 16.2885 2.27168 16.162 2.39823 15.9721C2.58805 15.719 2.65132 15.4027 2.65132 15.0863C2.65132 14.7067 2.52477 14.3903 2.39823 14.0739C2.2084 13.6943 2.08185 13.3146 1.95531 12.935C1.89203 12.935 1.89203 12.8084 1.82876 12.7452ZM17.9637 22.9956C18.0269 23.1854 18.1535 23.3119 18.2168 23.5018C18.3433 23.6916 18.28 23.8181 18.0902 23.8814C17.9004 23.9447 17.7106 23.9447 17.5208 23.9447C17.1411 23.9447 16.6982 23.9447 16.3185 23.9447C16.192 23.9447 16.0654 23.8814 16.0022 23.7549C15.8756 23.3119 15.6858 22.869 15.5593 22.3628C15.496 21.9199 15.496 21.5403 15.5593 21.0974C15.6858 20.5912 15.7491 20.0217 15.6225 19.5155C15.5593 19.2624 15.5593 19.0726 15.5593 18.8195C15.5593 18.4398 15.496 18.1235 15.496 17.7438C15.496 17.3009 15.5593 16.858 15.5593 16.4151C15.5593 16.2252 15.5593 15.9721 15.5593 15.7823C15.5593 15.6558 15.496 15.5925 15.3694 15.6558C15.1796 15.6558 14.9265 15.719 14.7367 15.7823C14.2305 15.8456 13.7876 15.9089 13.2814 16.0354C12.5221 16.162 11.8261 16.162 11.0668 16.0987C10.1177 16.0354 9.16856 15.9721 8.28272 15.6558C7.96635 15.5292 7.71325 15.4027 7.39688 15.2761C7.14379 15.1496 7.08051 15.1496 6.89069 15.3394C6.3845 15.8456 5.8783 16.4151 5.43539 16.9213C4.99247 17.4275 4.73937 17.9969 4.61282 18.6929C4.54955 19.1991 4.61282 19.7053 4.80264 20.2115C4.99247 20.6544 5.30884 21.0341 5.56193 21.477C5.68848 21.7301 5.68848 21.7301 5.43539 21.8566C5.24556 21.9199 5.11901 21.9832 5.05574 22.173C4.99247 22.2996 4.86592 22.2996 4.73937 22.2996C4.6761 22.2996 4.54955 22.2363 4.48627 22.2363C4.29645 22.173 4.10663 22.2363 4.04335 22.4261C4.10663 22.2996 4.10663 22.3628 4.10663 22.4894C4.10663 22.6159 4.04335 22.6792 3.85353 22.6792C3.60043 22.6792 3.34734 22.6159 3.09424 22.5527C2.77787 22.4894 2.4615 22.3628 2.14513 22.2996C1.95531 22.2363 2.01858 22.173 2.01858 22.0465C2.01858 21.7934 2.01858 21.6035 2.01858 21.3504C2.01858 21.1606 1.95531 20.9075 1.95531 20.7177C1.95531 20.2748 1.95531 19.8319 1.95531 19.3257C1.95531 19.0726 1.82876 18.8195 1.63893 18.6297C1.57566 18.946 1.32256 19.0093 1.06947 19.1359C0.942919 19.1991 0.879645 19.1359 0.816371 19.0093C0.626548 18.4398 0.5 17.8704 0.5 17.3009C0.5 16.858 0.5 16.3518 0.563274 15.9089C0.563274 15.6558 0.626548 15.4027 0.563274 15.1496C0.563274 14.3903 0.5 13.6943 0.5 12.935C0.5 12.5553 0.563274 12.1124 0.626548 11.7328C0.689823 11.1 0.816371 10.5306 0.942919 9.89782C1.06947 9.26508 1.32256 8.63234 1.82876 8.18942C2.39823 7.68323 3.03097 7.24031 3.66371 6.86066C4.29645 6.54429 4.92919 6.22792 5.62521 6.10137C5.94158 6.0381 6.19468 5.97483 6.51105 5.97483C6.95397 5.97483 7.46016 5.97483 7.90308 6.0381C8.28272 6.10137 8.59909 6.16465 8.91546 6.22792C9.42166 6.2912 9.92785 6.41775 10.3708 6.48102C10.877 6.54429 11.3199 6.60757 11.8261 6.67084C12.269 6.73412 12.7119 6.73412 13.0916 6.79739C13.8509 6.86066 14.5469 6.73412 15.2429 6.54429C15.8123 6.35447 16.3818 6.22792 16.9513 6.22792C17.1411 6.22792 17.3309 6.22792 17.5208 6.22792C18.0269 6.22792 18.5331 6.0381 18.9761 5.785C19.419 5.53191 19.7986 5.34208 20.3048 5.27881C20.3681 5.27881 20.3681 5.27881 20.4314 5.21554C20.8743 4.89917 21.2539 4.58279 21.6968 4.26642C21.8867 4.13987 22.0765 4.0766 22.2663 4.01333C22.5194 3.88678 22.7092 3.76023 22.7725 3.57041C22.7725 3.50713 22.7725 3.38058 22.7725 3.31731C22.7092 3.12749 22.646 2.87439 22.7092 2.68457C22.7092 2.55802 22.7092 2.3682 22.7725 2.24165C22.7725 1.98855 22.8358 1.73546 22.8358 1.48236C22.8358 1.16599 22.8358 0.849618 22.7092 0.533247C22.7092 0.469973 22.7092 0.343425 22.7092 0.280151C22.8358 0.0270539 22.9623 0.0270539 23.0889 0.0903281C23.4053 0.280151 23.7216 0.469973 23.8482 0.849618C24.038 1.16599 24.1645 1.54563 24.2911 1.862C24.4809 2.30492 24.6075 2.81112 24.9238 3.19076C24.9871 3.31731 25.1137 3.38058 25.1769 3.44386C25.2402 3.50713 25.3667 3.50713 25.43 3.38058C25.5566 3.19076 25.6831 3.19076 25.8729 3.25404C25.9995 3.31731 26.1893 3.31731 26.3159 3.31731C26.6322 3.38058 26.8853 3.25404 27.0119 3.00094C27.2017 2.62129 27.3915 2.24165 27.5813 1.79873C27.7079 1.48236 27.8977 1.10271 28.1508 0.849618C28.3406 0.659796 28.5937 0.469973 28.7836 0.343425C28.8468 0.280151 29.0366 0.280151 29.1632 0.280151C29.2265 0.280151 29.2897 0.343425 29.2897 0.406699C29.2897 0.533247 29.2897 0.659796 29.2265 0.849618C29.2265 0.912892 29.1632 1.03944 29.0999 1.03944C28.9101 1.29254 28.7836 1.54563 28.7203 1.79873C28.5937 2.43147 28.4039 3.06421 28.2774 3.69696C28.2141 4.0766 28.0875 4.45625 27.8344 4.70934C27.7712 4.77262 27.7712 4.83589 27.8344 4.96244C28.1508 5.46863 28.3406 5.97483 28.3406 6.54429C28.3406 6.92394 28.3406 7.36686 28.3406 7.7465C28.3406 8.12615 28.4039 8.44252 28.4672 8.82216C28.5305 9.13853 28.5937 9.51818 28.657 9.83455C28.657 10.0244 28.7203 10.2142 28.657 10.3407C28.657 10.9102 28.3406 11.1633 27.7712 11.2266C27.5181 11.2899 27.265 11.2899 26.9486 11.3531C26.6322 11.4164 26.3159 11.2899 26.0628 11.0368C25.8729 10.9102 25.7464 10.7204 25.8729 10.4673C25.8729 10.404 25.8729 10.2142 25.8097 10.1509C25.6198 9.708 25.2402 9.45491 24.7973 9.26508C24.4809 9.13853 24.1645 8.94871 23.9114 8.69561C23.8482 8.63234 23.7849 8.63234 23.6583 8.69561C23.5318 8.82216 23.4685 8.88544 23.4053 9.01199C23.2787 9.20181 23.1522 9.32836 23.0256 9.51818C22.8358 9.77128 22.7725 10.0876 22.5827 10.3407C22.3296 10.6571 22.0765 10.9735 21.8234 11.2899C21.3172 11.8593 20.811 12.4288 20.4946 13.1248C20.3681 13.3779 20.2415 13.6943 20.0517 13.9474C19.9884 14.0739 19.7986 14.2005 19.7353 14.327C19.419 14.6434 19.2924 15.023 19.1659 15.466C19.1026 15.719 19.0393 15.9721 18.9128 16.2252C18.6597 16.6682 18.4699 17.1744 18.4066 17.6805C18.28 18.3766 18.1535 19.0093 18.0269 19.7053C17.9637 19.9584 17.9637 20.2748 17.9637 20.5912C17.9637 21.2239 18.1535 21.7301 18.6597 22.173C18.7862 22.2996 18.9761 22.3628 19.1659 22.4261C19.2924 22.4894 19.419 22.5527 19.4823 22.6159C19.6088 22.6792 19.6088 22.869 19.4823 22.9323C19.3557 22.9956 19.2924 22.9956 19.1659 23.0589C18.8495 23.1221 18.5964 22.9956 18.28 22.869C18.2168 22.9956 18.0902 22.9323 17.9637 22.9956Z" fill="#9aa3b2"/>
<path d="M85.9839 11.1001L88.5782 6.48108H85.7941L84.5919 9.07532L83.453 6.48108H80.6689L83.2632 11.1001V13.6943H86.0472V11.1001H85.9839ZM79.53 6.48108H73.5822V13.6943H79.53V11.6696H76.303V11.0368H79.1503V9.20187H76.303V8.56913H79.53V6.48108ZM67.5712 10.7205L69.0897 13.6311H72.2534L69.849 9.64479L72.0636 6.41781H69.0897L67.5712 8.94878V6.41781H64.8504V13.6311H67.6344V10.7205H67.5712ZM60.2313 10.151L58.1433 6.48108H55.3592V13.6943H57.8902V10.0244L60.1681 13.6943H62.8256V6.48108H60.2946V10.151H60.2313ZM46.6274 7.30365C45.8681 7.99966 45.4885 8.8855 45.4885 10.0244C45.4885 11.1634 45.8681 12.1125 46.6274 12.7452C47.3867 13.378 48.3358 13.7576 49.538 13.7576C50.7402 13.7576 51.7526 13.4412 52.4486 12.7452C53.2079 12.1125 53.5876 11.1634 53.5876 10.0244C53.5876 8.8855 53.2079 7.93639 52.4486 7.30365C51.6893 6.60763 50.7402 6.29126 49.538 6.29126C48.3358 6.35453 47.3234 6.67091 46.6274 7.30365ZM48.5889 11.2899C48.3991 10.9735 48.2725 10.5939 48.2725 10.0244C48.2725 9.45497 48.3991 9.07532 48.5889 8.75895C48.7787 8.44258 49.0951 8.31603 49.538 8.31603C49.9809 8.31603 50.2973 8.44258 50.4871 8.75895C50.677 9.07532 50.8035 9.45497 50.8035 10.0244C50.8035 10.5939 50.677 10.9735 50.4871 11.2899C50.2973 11.6063 49.9809 11.7328 49.538 11.7328C49.0951 11.7328 48.7787 11.6063 48.5889 11.2899ZM36.6934 6.48108V13.6311C38.2119 13.8209 39.4141 13.8209 40.4265 13.6943C40.8695 13.6311 41.2491 13.5678 41.7553 13.378C42.1982 13.1881 42.6411 12.9983 42.9575 12.7452C43.2739 12.4921 43.5902 12.1125 43.7801 11.6696C43.9699 11.2266 44.0964 10.6572 44.0964 10.0877C44.0964 8.8855 43.6535 7.93639 42.831 7.30365C42.0084 6.67091 40.8695 6.29126 39.4774 6.29126C38.4018 6.35453 37.5159 6.35453 36.6934 6.48108ZM39.4774 11.7328V8.31603C39.5407 8.31603 39.6672 8.31603 39.7938 8.31603C40.3 8.31603 40.6164 8.44258 40.9327 8.75895C41.1858 9.07532 41.3124 9.45497 41.3124 10.0244C41.3124 10.5939 41.1858 10.9735 40.9327 11.2899C40.6796 11.6063 40.3 11.7961 39.7938 11.7961C39.604 11.7328 39.5407 11.7328 39.4774 11.7328Z" fill="#9aa3b2"/>
<path d="M86.6167 18.693C86.4269 18.5664 86.3636 18.3133 86.3636 18.0602C86.3636 17.8071 86.4269 17.554 86.6167 17.4275C86.8065 17.3009 86.9963 17.1744 87.3127 17.1744C87.6291 17.1744 87.8822 17.2377 88.072 17.3009L88.3884 16.2253C87.8822 16.0354 87.4392 15.9722 86.9963 15.9722C86.3636 15.9722 85.8574 16.162 85.4777 16.5416C85.0981 16.9213 84.9083 17.4275 84.9083 17.9969C84.9083 18.6297 85.0981 19.1359 85.4777 19.4522C85.8574 19.8319 86.3636 20.0217 86.9963 20.0217C87.4392 20.0217 87.9454 19.9584 88.3884 19.7686L88.072 18.693C87.8189 18.8195 87.5658 18.8195 87.3127 18.8195C86.9963 18.9461 86.8065 18.8195 86.6167 18.693ZM79.7198 19.9584H81.2384V16.0987H79.7198V19.9584ZM73.1393 16.0987V19.9584H76.1132V18.8828H74.6579V16.0987H73.1393ZM65.8628 16.0987V19.9584C66.3057 20.0217 66.8119 20.0217 67.3813 20.0217C67.9508 20.0217 68.457 19.9584 68.8366 19.8319C69.2796 19.6421 69.5327 19.3257 69.5327 18.8828C69.5327 18.6297 69.4694 18.4399 69.2796 18.3133C69.153 18.1868 68.9632 18.0602 68.8366 18.0602C69.2163 17.8704 69.4061 17.6173 69.4061 17.2377C69.4061 16.4784 68.6468 16.0987 67.1282 16.0987C66.8119 16.0354 66.3689 16.0354 65.8628 16.0987ZM67.2548 17.6173V16.9846C67.3181 16.9846 67.3813 16.9846 67.5079 16.9846C67.8242 16.9846 68.0141 17.1111 68.0141 17.3009C68.0141 17.554 67.8242 17.6173 67.5079 17.6173C67.3813 17.6173 67.3181 17.6173 67.2548 17.6173ZM67.2548 19.0726V18.3766C67.3181 18.3766 67.3813 18.3766 67.5079 18.3766C67.8875 18.3766 68.0773 18.5031 68.0773 18.7562C68.0773 18.8828 68.0141 18.9461 67.8875 19.0093C67.761 19.0726 67.6344 19.0726 67.5079 19.0726C67.3813 19.0726 67.3181 19.0726 67.2548 19.0726ZM60.5477 18.4399C60.5477 18.5664 60.5477 18.693 60.4844 18.8195C60.4212 18.8828 60.3579 18.9461 60.1681 18.9461C60.0415 18.9461 59.915 18.8828 59.8517 18.8195C59.7884 18.7562 59.7884 18.6297 59.7884 18.4399V16.0987H58.2698V18.4399C58.2698 19.0093 58.4597 19.389 58.776 19.6421C59.0924 19.8952 59.5353 20.0217 60.1681 20.0217C60.8008 20.0217 61.2437 19.8952 61.5601 19.6421C61.8765 19.389 62.0663 18.9461 62.0663 18.4399V16.0987H60.5477V18.4399ZM51.1199 16.0987V19.9584H52.5752V19.0093C52.8283 19.0093 53.0814 19.0093 53.3345 18.9461C53.9039 18.8195 54.3469 18.6297 54.5367 18.25C54.6632 18.0602 54.7265 17.8071 54.7265 17.4907C54.7265 17.2377 54.6632 16.9846 54.5367 16.7947C54.4101 16.6049 54.2203 16.4151 53.9672 16.3518C53.7141 16.2253 53.5243 16.162 53.2712 16.0987C53.0181 16.0354 52.7017 16.0354 52.2588 16.0354C51.8792 16.0354 51.4995 16.0354 51.1199 16.0987ZM53.1446 17.8071C53.0181 17.8704 52.9548 17.9337 52.8283 17.9337C52.7017 17.9337 52.6384 17.9337 52.5119 17.9337V17.1111C52.765 17.1111 52.9548 17.1111 53.0814 17.2377C53.2079 17.3009 53.2079 17.4275 53.2079 17.554C53.2712 17.6806 53.2712 17.7438 53.1446 17.8071ZM47.3234 16.0987H44.0964V19.9584H47.3234V18.8828H45.5517V18.5031H47.1336V17.4907H45.615V17.1744H47.3867V16.0987H47.3234ZM38.4018 18.7562C38.465 18.7562 38.5283 18.7562 38.5916 18.8195C38.6549 18.8828 38.6549 18.8828 38.7181 18.9461C38.8447 19.0726 38.908 19.389 39.0345 19.9584H40.5531C40.4265 18.9461 40.1734 18.4399 39.7305 18.3766C40.2367 18.1868 40.4265 17.8071 40.4265 17.3642C40.4265 16.4784 39.6672 16.0354 38.2119 16.0354C37.6425 16.0354 37.1363 16.0987 36.6934 16.162V20.0217H38.1487V18.8195C38.2752 18.7562 38.3385 18.7562 38.4018 18.7562ZM38.1487 17.8704V17.1111C38.2119 17.1111 38.2752 17.1111 38.3385 17.1111C38.5283 17.1111 38.6549 17.1111 38.7814 17.1744C38.908 17.2377 38.9712 17.3009 38.9712 17.4275C38.9712 17.554 38.908 17.6173 38.8447 17.6806C38.7181 17.8071 38.5283 17.8071 38.3385 17.8071C38.2119 17.8704 38.2119 17.8704 38.1487 17.8704Z" fill="#9aa3b2"/>
</svg>