<svg class="logo-svg" preserveAspectRatio="xMidYMid meet" xmlns="http://www.w3.org/2000/svg" viewBox="0 0 3860 1201" fill="none">
  <path d="M1450.73 165.722H1708.25V228.755H1522.93V317.109H1671.62V380.142H1522.93V490.585H1714.18V554.157H1450.73V165.722ZM1853.41 558.467C1826.11 558.467 1802.41 552.361 1782.29 540.149C1762.18 527.938 1746.74 511.057 1735.96 489.507C1725.19 467.598 1719.8 442.457 1719.8 414.083C1719.8 385.709 1725.19 360.748 1735.96 339.198C1746.74 317.289 1762 300.408 1781.75 288.556C1801.87 276.344 1825.39 270.239 1852.33 270.239C1869.21 270.239 1884.83 273.471 1899.2 279.936C1913.57 286.401 1924.88 295.2 1933.14 306.334V161.412H2001.02V554.157H1933.14V521.293C1926.32 532.068 1915.72 541.047 1901.36 548.23C1886.99 555.055 1871.01 558.467 1853.41 558.467ZM1863.1 499.744C1885.37 499.744 1903.33 492.022 1916.98 476.578C1930.63 460.774 1937.45 439.943 1937.45 414.083C1937.45 388.583 1930.63 368.11 1916.98 352.666C1903.33 336.863 1885.37 328.962 1863.1 328.962C1840.84 328.962 1822.88 336.863 1809.23 352.666C1795.58 368.11 1788.76 388.583 1788.76 414.083C1788.76 439.584 1795.58 460.236 1809.23 476.039C1822.88 491.842 1840.84 499.744 1863.1 499.744ZM2300.27 554.157H2232.38V511.057C2223.05 525.783 2210.48 537.456 2194.67 546.075C2179.23 554.336 2161.99 558.467 2142.95 558.467C2112.78 558.467 2088.36 549.308 2069.68 530.991C2051.01 512.314 2041.67 487.891 2041.67 457.721V274.549H2109.01V442.098C2109.01 458.619 2113.86 472.088 2123.56 482.504C2133.61 492.919 2146.72 498.127 2162.89 498.127C2184.79 498.127 2201.86 489.328 2214.07 471.729C2226.28 453.771 2232.38 428.988 2232.38 397.382V274.549H2300.27V554.157ZM2468.87 558.467C2441.58 558.467 2417.33 552.361 2396.14 540.149C2374.95 527.938 2358.43 511.057 2346.58 489.507C2334.72 467.598 2328.8 442.457 2328.8 414.083C2328.8 386.069 2334.72 361.286 2346.58 339.737C2358.43 317.828 2374.95 300.767 2396.14 288.556C2417.33 276.344 2441.58 270.239 2468.87 270.239C2504.43 270.239 2533.7 279.577 2556.69 298.253C2580.03 316.571 2593.86 343.149 2598.17 377.987H2531.9C2529.03 363.621 2521.85 351.948 2510.35 342.969C2499.22 333.631 2485.75 328.962 2469.95 328.962C2448.4 328.962 2430.98 336.684 2417.69 352.128C2404.76 367.572 2398.3 388.224 2398.3 414.083C2398.3 440.302 2404.76 461.134 2417.69 476.578C2430.98 492.022 2448.4 499.744 2469.95 499.744C2486.11 499.744 2499.58 495.254 2510.35 486.275C2521.49 477.296 2528.49 464.905 2531.37 449.102H2598.17C2592.78 485.377 2578.6 512.673 2555.61 530.991C2532.98 549.308 2504.07 558.467 2468.87 558.467ZM2706.88 558.467C2688.2 558.467 2671.5 555.055 2656.78 548.23C2642.05 541.047 2630.38 531.35 2621.76 519.138C2613.5 506.927 2609.37 493.099 2609.37 477.655C2609.37 453.232 2617.81 433.658 2634.69 418.932C2651.57 403.847 2675.63 394.329 2706.88 390.378L2762.91 382.836C2777.99 380.681 2785.54 373.318 2785.54 360.748C2785.54 349.973 2780.69 340.994 2770.99 333.81C2761.29 326.627 2748.54 323.036 2732.74 323.036C2716.94 323.036 2703.83 326.986 2693.41 334.888C2683.35 342.789 2677.79 353.744 2676.71 367.751H2610.98C2614.21 337.582 2626.61 313.877 2648.16 296.637C2669.71 279.038 2697.9 270.239 2732.74 270.239C2769.73 270.239 2799 280.116 2820.55 299.87C2842.46 319.264 2853.42 345.483 2853.42 378.526V477.116C2853.42 492.201 2859.16 499.744 2870.66 499.744C2873.17 499.744 2876.22 499.384 2879.82 498.666V554.157C2868.68 556.312 2857.91 557.389 2847.49 557.389C2832.76 557.389 2820.55 553.977 2810.86 547.153C2801.52 540.329 2796.13 530.452 2794.69 517.522C2788.59 530.093 2777.63 540.149 2761.83 547.692C2746.03 554.875 2727.71 558.467 2706.88 558.467ZM2718.19 506.747C2739.38 506.747 2756.08 499.923 2768.3 486.275C2780.87 472.627 2787.15 455.028 2787.15 433.478V425.397L2718.19 436.71C2690.9 441.02 2677.25 453.591 2677.25 474.423C2677.25 483.761 2681.02 491.483 2688.56 497.589C2696.1 503.694 2705.98 506.747 2718.19 506.747ZM3049.64 331.117H2984.45V458.799C2984.45 471.729 2988.05 481.785 2995.23 488.969C3002.41 496.152 3011.75 499.744 3023.24 499.744C3032.58 499.744 3041.38 498.486 3049.64 495.972V554.695C3039.59 557.21 3028.09 558.467 3015.16 558.467C2985.35 558.467 2961.47 550.565 2943.51 534.762C2925.55 518.959 2916.57 495.972 2916.57 465.803V331.117H2869.16V274.549H2916.57V192.121H2984.45V274.549H3049.64V331.117ZM3074.56 274.549H3142.44V554.157H3074.56V274.549ZM3145.68 161.412V232.527H3071.87V161.412H3145.68ZM3312.88 558.467C3285.58 558.467 3260.98 552.361 3239.07 540.149C3217.52 527.579 3200.64 510.339 3188.43 488.43C3176.22 466.521 3170.11 441.739 3170.11 414.083C3170.11 386.787 3176.22 362.184 3188.43 340.275C3200.64 318.366 3217.52 301.306 3239.07 289.095C3260.98 276.524 3285.58 270.239 3312.88 270.239C3339.81 270.239 3364.06 276.524 3385.61 289.095C3407.52 301.306 3424.58 318.366 3436.79 340.275C3449.36 362.184 3455.64 386.787 3455.64 414.083C3455.64 441.38 3449.36 466.162 3436.79 488.43C3424.58 510.339 3407.7 527.579 3386.15 540.149C3364.6 552.361 3340.17 558.467 3312.88 558.467ZM3312.88 499.744C3334.79 499.744 3352.56 491.842 3366.21 476.039C3379.86 460.236 3386.68 439.584 3386.68 414.083C3386.68 388.942 3379.68 368.47 3365.67 352.666C3352.03 336.863 3334.43 328.962 3312.88 328.962C3290.61 328.962 3272.83 336.863 3259.54 352.666C3246.25 368.47 3239.61 388.942 3239.61 414.083C3239.61 439.584 3246.25 460.236 3259.54 476.039C3272.83 491.842 3290.61 499.744 3312.88 499.744ZM3484.18 274.549H3552.06V317.648C3561.4 302.922 3573.79 291.429 3589.23 283.168C3605.03 274.549 3622.45 270.239 3641.49 270.239C3671.66 270.239 3696.08 279.577 3714.76 298.253C3733.44 316.571 3742.77 340.814 3742.77 370.984V554.157H3675.43V386.607C3675.43 370.086 3670.4 356.617 3660.35 346.201C3650.65 335.786 3637.72 330.578 3621.56 330.578C3599.65 330.578 3582.59 339.557 3570.38 357.515C3558.16 375.114 3552.06 399.717 3552.06 431.323V554.157H3484.18V274.549ZM1450.73 677.722H1617.74C1643.25 677.722 1665.33 682.751 1684.01 692.807C1703.05 702.505 1717.59 716.512 1727.65 734.829C1737.7 752.787 1742.73 773.619 1742.73 797.323C1742.73 819.951 1737.53 840.423 1727.11 858.74C1717.05 876.698 1702.51 890.885 1683.47 901.301C1664.79 911.717 1642.89 916.925 1617.74 916.925H1522.93V1066.16H1450.73V677.722ZM1606.97 853.353C1626.36 853.353 1641.63 848.325 1652.76 838.268C1663.9 827.852 1669.46 814.204 1669.46 797.323C1669.46 780.443 1663.9 766.974 1652.76 756.918C1641.63 746.502 1626.36 741.294 1606.97 741.294H1522.93V853.353H1606.97ZM1750.3 926.083C1750.3 900.942 1755.33 877.417 1765.39 855.508C1775.8 833.599 1791.25 816 1811.72 802.711C1832.55 789.063 1857.51 782.239 1886.6 782.239C1915.7 782.239 1940.48 788.704 1960.95 801.633C1981.42 814.563 1996.69 831.444 2006.74 852.275C2017.16 873.107 2022.37 895.195 2022.37 918.541C2022.37 925.724 2022.01 933.985 2021.29 943.323H1817.11C1819.98 965.591 1828.06 982.831 1841.35 995.042C1854.64 1007.25 1871.52 1013.36 1891.99 1013.36C1907.79 1013.36 1921.08 1009.95 1931.86 1003.12C1942.99 996.3 1950.17 986.782 1953.41 974.57H2020.75C2016.08 1004.38 2001.89 1027.91 1978.19 1045.15C1954.84 1062.03 1925.57 1070.47 1890.37 1070.47C1860.92 1070.47 1835.6 1063.82 1814.41 1050.53C1793.22 1036.88 1777.24 1019.11 1766.46 997.197C1755.69 974.929 1750.3 951.225 1750.3 926.083ZM1949.1 892.142C1947.66 874.903 1941.55 860.895 1930.78 850.12C1920.01 839.345 1905.28 833.958 1886.6 833.958C1869 833.958 1854.46 838.986 1842.96 849.043C1831.47 859.099 1823.57 873.466 1819.26 892.142H1949.1ZM2221.98 848.504C2210.13 846.349 2201.15 845.272 2195.05 845.272C2173.5 845.272 2155.36 855.149 2140.63 874.903C2126.27 894.297 2119.08 923.749 2119.08 963.257V1066.16H2051.2V786.549H2119.08V837.729C2125.19 821.926 2136.32 808.817 2152.49 798.401C2169.01 787.626 2185.89 782.239 2203.13 782.239C2209.23 782.239 2215.52 782.777 2221.98 783.855V848.504ZM2288.15 843.117H2240.74V786.549H2288.15V761.228C2288.15 731.058 2297.13 708.072 2315.09 692.268C2333.04 676.465 2356.57 668.564 2385.66 668.564C2399.31 668.564 2411.34 669.821 2421.76 672.335V729.98C2414.21 727.825 2405.06 726.748 2394.28 726.748C2383.51 726.748 2374.35 730.34 2366.8 737.523C2359.62 744.706 2356.03 754.763 2356.03 767.693V786.549H2421.76V843.117H2356.03V1066.16H2288.15V843.117ZM2415.21 926.083C2415.21 900.942 2420.24 877.417 2430.29 855.508C2440.71 833.599 2456.15 816 2476.62 802.711C2497.46 789.063 2522.42 782.239 2551.51 782.239C2580.6 782.239 2605.38 788.704 2625.86 801.633C2646.33 814.563 2661.59 831.444 2671.65 852.275C2682.07 873.107 2687.27 895.195 2687.27 918.541C2687.27 925.724 2686.91 933.985 2686.2 943.323H2482.01C2484.89 965.591 2492.97 982.831 2506.26 995.042C2519.54 1007.25 2536.42 1013.36 2556.9 1013.36C2572.7 1013.36 2585.99 1009.95 2596.76 1003.12C2607.9 996.3 2615.08 986.782 2618.31 974.57H2685.66C2680.99 1004.38 2666.8 1027.91 2643.1 1045.15C2619.75 1062.03 2590.48 1070.47 2555.28 1070.47C2525.83 1070.47 2500.51 1063.82 2479.32 1050.53C2458.13 1036.88 2442.14 1019.11 2431.37 997.197C2420.6 974.929 2415.21 951.225 2415.21 926.083ZM2614 892.142C2612.57 874.903 2606.46 860.895 2595.69 850.12C2584.91 839.345 2570.19 833.958 2551.51 833.958C2533.91 833.958 2519.36 838.986 2507.87 849.043C2496.38 859.099 2488.48 873.466 2484.17 892.142H2614ZM2841.64 1070.47C2814.34 1070.47 2790.1 1064.36 2768.91 1052.15C2747.72 1039.94 2731.19 1023.06 2719.34 1001.51C2707.49 979.598 2701.56 954.457 2701.56 926.083C2701.56 898.069 2707.49 873.286 2719.34 851.737C2731.19 829.828 2747.72 812.767 2768.91 800.556C2790.1 788.344 2814.34 782.239 2841.64 782.239C2877.19 782.239 2906.46 791.577 2929.45 810.253C2952.8 828.571 2966.62 855.149 2970.93 889.987H2904.67C2901.8 875.621 2894.61 863.948 2883.12 854.969C2871.99 845.631 2858.52 840.962 2842.71 840.962C2821.16 840.962 2803.74 848.684 2790.46 864.128C2777.53 879.572 2771.06 900.224 2771.06 926.083C2771.06 952.302 2777.53 973.134 2790.46 988.578C2803.74 1004.02 2821.16 1011.74 2842.71 1011.74C2858.88 1011.74 2872.34 1007.25 2883.12 998.275C2894.25 989.296 2901.26 976.905 2904.13 961.102H2970.93C2965.55 997.377 2951.36 1024.67 2928.37 1042.99C2905.75 1061.31 2876.83 1070.47 2841.64 1070.47ZM3149.73 843.117H3084.54V970.799C3084.54 983.729 3088.13 993.785 3095.32 1000.97C3102.5 1008.15 3111.84 1011.74 3123.33 1011.74C3132.67 1011.74 3141.47 1010.49 3149.73 1007.97V1066.7C3139.67 1069.21 3128.18 1070.47 3115.25 1070.47C3085.44 1070.47 3061.56 1062.57 3043.6 1046.76C3025.64 1030.96 3016.66 1007.97 3016.66 977.803V843.117H2969.25V786.549H3016.66V704.121H3084.54V786.549H3149.73V843.117Z" fill="#9aa3b2"></path>
  <rect x="0.288452" y="140.773" width="1150.95" height="1067.69" rx="195.907" transform="rotate(-7 0.288452 140.773)" fill="#9aa3b2"></rect>
  <path d="M746.069 559.593C746.069 631.498 792.689 683.649 863.013 683.649C934.919 683.649 979.168 631.498 979.168 559.593C979.168 487.688 932.548 434.746 862.223 434.746C790.318 434.746 746.069 487.688 746.069 559.593ZM749.229 736.59V908.847H643.347V347.828H743.698V388.127C765.033 366.792 806.121 340.717 873.286 340.717C1001.29 340.717 1085.05 430.796 1085.05 558.012C1085.05 680.488 1002.87 777.679 868.545 777.679C812.443 777.679 770.564 754.764 749.229 736.59Z" fill="#9aa3b2"></path>
  <path d="M598.646 593.57H296.802C302.333 649.672 341.841 683.649 401.894 683.649C455.625 683.649 493.857 654.651 515.981 619.884L594.208 667.294C562.509 717.837 504.616 777.679 401.894 777.679C273.887 777.679 185.388 694.711 185.388 560.383C185.388 433.956 270.726 340.717 393.202 340.717C520.419 340.717 600.226 423.684 600.226 550.111C600.226 560.383 600.226 575.396 598.646 593.57ZM392.412 430.005C338.681 430.005 304.704 465.563 299.172 513.763H490.393C485.652 466.353 450.094 430.005 392.412 430.005Z" fill="#9aa3b2"></path>
</svg>