<svg class="logo-svg" preserveAspectRatio="xMidYMid meet" xmlns="http://www.w3.org/2000/svg" viewBox="0 0 724 181" fill="none">
  <path d="M151.084 104.414L108.422 30.4991C96.5039 9.83363 66.6309 9.83363 54.6612 30.4991L12 104.414" stroke="#7037ED" stroke-width="22.26" stroke-linecap="round" stroke-linejoin="round"></path>
  <path d="M80.6412 46.9701L37.98 120.885C26.0615 141.55 40.9469 167.433 64.8351 167.433H150.157" stroke="#7037ED" stroke-width="22.26" stroke-linecap="round" stroke-linejoin="round"></path>
  <path d="M65.6057 136.333H150.928C174.816 136.333 189.753 110.501 177.783 89.7845L135.173 15.8696" stroke="#7037ED" stroke-width="22.26" stroke-linecap="round" stroke-linejoin="round"></path>
  <path d="M288.115 97.0192C288.115 99.1632 287.972 101.093 287.686 102.808H244.27C244.627 107.096 246.128 110.455 248.772 112.885C251.416 115.315 254.668 116.53 258.527 116.53C264.102 116.53 268.068 114.135 270.427 109.347H286.614C284.899 115.065 281.611 119.781 276.751 123.498C271.892 127.142 265.924 128.965 258.849 128.965C253.132 128.965 247.986 127.714 243.412 125.213C238.91 122.64 235.372 119.031 232.799 114.386C230.298 109.74 229.047 104.38 229.047 98.3056C229.047 92.1595 230.298 86.7637 232.799 82.1184C235.301 77.4731 238.803 73.8997 243.305 71.3984C247.807 68.8971 252.989 67.6464 258.849 67.6464C264.495 67.6464 269.533 68.8613 273.964 71.2912C278.467 73.7211 281.933 77.1872 284.363 81.6896C286.864 86.1205 288.115 91.2304 288.115 97.0192ZM272.571 92.7312C272.499 88.872 271.106 85.7989 268.39 83.512C265.674 81.1536 262.351 79.9744 258.42 79.9744C254.704 79.9744 251.559 81.1179 248.987 83.4048C246.485 85.6203 244.949 88.7291 244.377 92.7312H272.571ZM322.76 114.171L337.768 68.6112H353.741L331.765 128H313.541L291.672 68.6112H307.752L322.76 114.171ZM416.307 97.0192C416.307 99.1632 416.164 101.093 415.878 102.808H372.462C372.819 107.096 374.32 110.455 376.964 112.885C379.608 115.315 382.86 116.53 386.719 116.53C392.294 116.53 396.26 114.135 398.619 109.347H414.806C413.091 115.065 409.803 119.781 404.943 123.498C400.084 127.142 394.116 128.965 387.041 128.965C381.324 128.965 376.178 127.714 371.604 125.213C367.102 122.64 363.564 119.031 360.991 114.386C358.49 109.74 357.239 104.38 357.239 98.3056C357.239 92.1595 358.49 86.7637 360.991 82.1184C363.493 77.4731 366.995 73.8997 371.497 71.3984C375.999 68.8971 381.181 67.6464 387.041 67.6464C392.687 67.6464 397.725 68.8613 402.156 71.2912C406.659 73.7211 410.125 77.1872 412.555 81.6896C415.056 86.1205 416.307 91.2304 416.307 97.0192ZM400.763 92.7312C400.691 88.872 399.297 85.7989 396.582 83.512C393.866 81.1536 390.543 79.9744 386.612 79.9744C382.896 79.9744 379.751 81.1179 377.179 83.4048C374.677 85.6203 373.141 88.7291 372.569 92.7312H400.763ZM459.099 67.7536C466.175 67.7536 471.892 70.0048 476.251 74.5072C480.611 78.9381 482.791 85.1557 482.791 93.16V128H467.783V95.1968C467.783 90.48 466.603 86.8709 464.245 84.3696C461.887 81.7968 458.671 80.5104 454.597 80.5104C450.452 80.5104 447.164 81.7968 444.735 84.3696C442.376 86.8709 441.197 90.48 441.197 95.1968V128H426.189V68.6112H441.197V76.008C443.198 73.4352 445.735 71.4341 448.808 70.0048C451.953 68.504 455.383 67.7536 459.099 67.7536ZM513.464 80.9392V109.669C513.464 111.67 513.929 113.135 514.858 114.064C515.858 114.922 517.502 115.35 519.789 115.35H526.757V128H517.323C504.674 128 498.349 121.854 498.349 109.562V80.9392H491.274V68.6112H498.349V53.9248H513.464V68.6112H526.757V80.9392H513.464ZM559.206 128.965C554.346 128.965 549.987 128.107 546.127 126.392C542.268 124.605 539.195 122.211 536.908 119.21C534.693 116.208 533.478 112.885 533.263 109.24H548.379C548.664 111.527 549.772 113.421 551.702 114.922C553.703 116.422 556.168 117.173 559.099 117.173C561.957 117.173 564.173 116.601 565.745 115.458C567.389 114.314 568.211 112.849 568.211 111.062C568.211 109.133 567.21 107.703 565.209 106.774C563.279 105.774 560.171 104.702 555.883 103.558C551.452 102.486 547.807 101.379 544.948 100.235C542.161 99.0917 539.731 97.3408 537.659 94.9824C535.658 92.624 534.657 89.4437 534.657 85.4416C534.657 82.1541 535.586 79.1525 537.444 76.4368C539.374 73.7211 542.09 71.5771 545.591 70.0048C549.165 68.4325 553.346 67.6464 558.134 67.6464C565.209 67.6464 570.855 69.4331 575.071 73.0064C579.288 76.5083 581.611 81.2608 582.039 87.264H567.675C567.46 84.9056 566.46 83.0475 564.673 81.6896C562.958 80.2603 560.635 79.5456 557.705 79.5456C554.989 79.5456 552.881 80.0459 551.38 81.0464C549.951 82.0469 549.236 83.4405 549.236 85.2272C549.236 87.2283 550.237 88.7648 552.238 89.8368C554.239 90.8373 557.348 91.8736 561.564 92.9456C565.852 94.0176 569.39 95.1253 572.177 96.2688C574.964 97.4123 577.358 99.1989 579.359 101.629C581.432 103.987 582.504 107.132 582.575 111.062C582.575 114.493 581.611 117.566 579.681 120.282C577.823 122.997 575.107 125.141 571.534 126.714C568.032 128.214 563.923 128.965 559.206 128.965ZM591.036 98.4128C591.036 92.4096 592.251 87.1568 594.681 82.6544C597.111 78.0805 600.434 74.5429 604.65 72.0416C608.938 69.5403 613.691 68.2896 618.908 68.2896C624.053 68.2896 628.52 69.3973 632.308 71.6128C636.096 73.8283 638.919 76.6155 640.777 79.9744V69.2544H650.639V128H640.777V117.066C638.847 120.496 635.953 123.355 632.093 125.642C628.306 127.857 623.875 128.965 618.801 128.965C613.584 128.965 608.867 127.678 604.65 125.106C600.434 122.533 597.111 118.924 594.681 114.278C592.251 109.633 591.036 104.345 591.036 98.4128ZM640.777 98.52C640.777 94.0891 639.883 90.2299 638.097 86.9424C636.31 83.6549 633.88 81.1536 630.807 79.4384C627.805 77.6517 624.482 76.7584 620.837 76.7584C617.193 76.7584 613.869 77.616 610.868 79.3312C607.866 81.0464 605.472 83.5477 603.685 86.8352C601.899 90.1227 601.005 93.9819 601.005 98.4128C601.005 102.915 601.899 106.846 603.685 110.205C605.472 113.492 607.866 116.029 610.868 117.816C613.869 119.531 617.193 120.389 620.837 120.389C624.482 120.389 627.805 119.531 630.807 117.816C633.88 116.029 636.31 113.492 638.097 110.205C639.883 106.846 640.777 102.951 640.777 98.52ZM671.091 59.7136C669.233 59.7136 667.66 59.0704 666.374 57.784C665.088 56.4976 664.444 54.9253 664.444 53.0672C664.444 51.2091 665.088 49.6368 666.374 48.3504C667.66 47.064 669.233 46.4208 671.091 46.4208C672.877 46.4208 674.378 47.064 675.593 48.3504C676.88 49.6368 677.523 51.2091 677.523 53.0672C677.523 54.9253 676.88 56.4976 675.593 57.784C674.378 59.0704 672.877 59.7136 671.091 59.7136ZM675.808 69.2544V128H666.052V69.2544H675.808ZM701.117 78.7952C702.832 75.4363 705.262 72.8277 708.406 70.9696C711.622 69.1115 715.517 68.1824 720.091 68.1824V78.2592H717.518C706.584 78.2592 701.117 84.1909 701.117 96.0544V128H691.362V69.2544H701.117V78.7952Z" fill="#9aa3b2"></path>
</svg>