<svg class="logo-svg" preserveAspectRatio="xMidYMid meet" viewBox="0 0 200 200" fill="none" xmlns="http://www.w3.org/2000/svg">
<path d="M70.1802 74.7275V70.2593H66.052V66.1797H61.6324V70.2593L57.5527 70.3079V74.7275H61.6324V78.8072H66.1006L66.052 74.7275H70.1802Z" fill="#9aa3b2"/>
<path d="M35.8433 106.733C32.7836 106.733 30.3066 104.257 30.3066 101.197C30.3066 98.1371 32.7836 95.6602 35.8433 95.6602C38.903 95.6602 41.38 98.1371 41.38 101.197C41.38 104.257 38.903 106.733 35.8433 106.733ZM35.8433 98.9142C34.5806 98.9142 33.5121 99.9341 33.5121 101.245C33.5121 102.508 34.532 103.577 35.8433 103.577C37.1061 103.577 38.1745 102.557 38.1745 101.245C38.126 99.9341 37.1061 98.9142 35.8433 98.9142Z" fill="#9aa3b2"/>
<path d="M110.636 134.223L113.259 131.6L110.83 129.22L113.21 126.84L110.636 124.218L108.256 126.598L105.828 124.218L103.254 126.84L105.634 129.22L103.254 131.6L105.877 134.223L108.256 131.794L110.636 134.223Z" fill="#9aa3b2"/>
<path d="M112.531 77.5449L113.405 88.7154L122.682 82.4016L112.531 77.5449Z" fill="#9aa3b2"/>
<path d="M153.91 88.6661C150.85 88.6661 148.373 86.1892 148.373 83.1294C148.373 80.0697 150.85 77.5928 153.91 77.5928C156.969 77.5928 159.446 80.0697 159.446 83.1294C159.446 86.1892 156.969 88.6661 153.91 88.6661ZM153.91 80.8468C152.647 80.8468 151.578 81.8667 151.578 83.178C151.578 84.4408 152.598 85.5092 153.91 85.5092C155.172 85.5092 156.241 84.4893 156.241 83.178C156.241 81.8667 155.221 80.8468 153.91 80.8468Z" fill="#9aa3b2"/>
<g opacity="0.5">
<path d="M59.2515 127.229C57.843 127.229 56.5803 126.743 55.5604 125.82C54.929 125.237 54.0548 124.897 53.1806 124.897C52.2578 124.897 51.4321 125.237 50.8008 125.82C50.4122 126.16 49.8294 126.16 49.4894 125.772C49.1495 125.383 49.1495 124.8 49.538 124.46C50.5094 123.537 51.8207 123.052 53.2291 123.052C54.6376 123.052 55.9003 123.537 56.9202 124.46C57.5516 125.043 58.4258 125.383 59.3 125.383C60.2228 125.383 61.0485 125.043 61.6798 124.46C62.6512 123.537 63.9625 123.052 65.3709 123.052C66.7794 123.052 68.0421 123.537 69.0621 124.46C69.6934 125.043 70.5676 125.383 71.4419 125.383C72.3646 125.383 73.1903 125.043 73.8216 124.46C74.793 123.537 76.1043 123.052 77.5128 123.052C78.9212 123.052 80.184 123.537 81.2039 124.46C81.5924 124.8 81.5924 125.432 81.2524 125.772C80.9125 126.16 80.2811 126.16 79.9411 125.82C79.3098 125.237 78.4355 124.897 77.5613 124.897C76.6385 124.897 75.8129 125.237 75.1815 125.82C74.2102 126.743 72.8989 127.229 71.4904 127.229C70.082 127.229 68.8192 126.743 67.7993 125.82C67.1679 125.237 66.2937 124.897 65.4195 124.897C64.4967 124.897 63.6711 125.237 63.0397 125.82C61.9712 126.743 60.6599 127.229 59.2515 127.229Z" fill="#9aa3b2"/>
</g>
<g opacity="0.5">
<path d="M144.439 126.744C143.953 126.355 143.953 125.772 144.39 125.384L147.207 123.052C147.353 122.955 147.353 122.761 147.207 122.664L144.39 120.43C143.953 120.041 143.953 119.459 144.39 119.119C144.827 118.73 145.605 118.73 146.042 119.119L149.927 122.227C150.364 122.567 150.364 123.15 149.927 123.538L146.042 126.792C145.653 127.084 144.925 127.084 144.439 126.744Z" fill="#9aa3b2"/>
<path d="M150.996 126.744C150.51 126.355 150.51 125.772 150.947 125.384L153.764 123.052C153.91 122.955 153.91 122.761 153.764 122.664L150.947 120.43C150.51 120.041 150.51 119.459 150.947 119.119C151.384 118.73 152.161 118.73 152.598 119.119L156.484 122.227C156.921 122.567 156.921 123.15 156.484 123.538L152.598 126.792C152.21 127.084 151.481 127.084 150.996 126.744Z" fill="#9aa3b2"/>
<path d="M157.261 126.744C156.775 126.355 156.775 125.772 157.213 125.384L160.029 123.052C160.175 122.955 160.175 122.761 160.029 122.664L157.213 120.43C156.775 120.041 156.775 119.459 157.213 119.119C157.65 118.73 158.427 118.73 158.864 119.119L162.749 122.227C163.186 122.567 163.186 123.15 162.749 123.538L158.864 126.792C158.475 127.084 157.747 127.084 157.261 126.744Z" fill="#9aa3b2"/>
<path d="M163.818 126.744C163.332 126.355 163.332 125.772 163.769 125.384L166.586 123.052C166.732 122.955 166.732 122.761 166.586 122.664L163.769 120.43C163.332 120.041 163.332 119.459 163.769 119.119C164.206 118.73 164.983 118.73 165.421 119.119L169.306 122.227C169.743 122.567 169.743 123.15 169.306 123.538L165.421 126.792C165.032 127.084 164.303 127.084 163.818 126.744Z" fill="#9aa3b2"/>
</g>
<path d="M79.2132 117.903H72.608V104.11H59.6891V117.903H53.084V85.752H59.6891V98.768H72.608V85.752H79.2132V117.903Z" fill="#9aa3b2"/>
<path d="M90.0438 94.0084L90.2381 96.7767C91.0637 95.7568 92.0351 94.9797 93.2007 94.3969C94.3663 93.8141 95.6776 93.5713 97.0861 93.5713C98.2031 93.5713 99.2716 93.717 100.194 94.057C101.117 94.3969 101.894 94.8826 102.574 95.6111C103.254 96.3396 103.74 97.2624 104.128 98.428C104.468 99.5936 104.663 101.002 104.663 102.702V117.903H98.3003V102.653C98.3003 101.876 98.2031 101.245 98.0574 100.759C97.9117 100.274 97.6203 99.885 97.3289 99.5451C97.0375 99.2051 96.6004 99.0594 96.1147 98.9137C95.6291 98.768 95.0948 98.7194 94.4634 98.7194C93.5407 98.7194 92.715 98.9137 92.0351 99.3508C91.3551 99.7393 90.8209 100.322 90.4324 101.051V117.903H84.0215V94.0084H90.0438Z" fill="#9aa3b2"/>
<path d="M122.293 99.9822C121.953 99.9336 121.613 99.885 121.176 99.885C120.739 99.8365 120.351 99.8365 120.011 99.8365C118.748 99.8365 117.728 100.031 116.951 100.468C116.174 100.905 115.591 101.488 115.251 102.313V117.952H108.889V94.0084H114.911L115.105 96.8739C115.688 95.8539 116.465 95.0283 117.339 94.4455C118.214 93.8627 119.234 93.5713 120.448 93.5713C120.788 93.5713 121.128 93.6199 121.516 93.6684C121.905 93.717 122.196 93.8141 122.439 93.8627L122.293 99.9822Z" fill="#9aa3b2"/>
<path d="M134.823 108.87L139.242 94.0083H146.09L136.522 121.497C136.28 122.08 136.037 122.76 135.697 123.44C135.357 124.169 134.871 124.8 134.288 125.431C133.706 126.063 132.977 126.548 132.103 126.937C131.229 127.325 130.16 127.568 128.897 127.568C128.606 127.568 128.315 127.568 128.12 127.52C127.877 127.52 127.635 127.471 127.44 127.423C127.197 127.374 127.003 127.374 126.809 127.325C126.615 127.277 126.372 127.228 126.129 127.131V122.274C126.275 122.274 126.469 122.274 126.615 122.274C126.76 122.274 126.955 122.274 127.1 122.274C127.732 122.274 128.266 122.226 128.703 122.129C129.14 122.032 129.529 121.886 129.869 121.643C130.209 121.449 130.452 121.157 130.694 120.817C130.937 120.477 131.083 120.089 131.277 119.652L131.957 117.855L123.604 93.9111H130.452L134.823 108.87Z" fill="#9aa3b2"/>
</svg>