<svg class="logo-svg" preserveAspectRatio="xMidYMid meet" xmlns="http://www.w3.org/2000/svg" viewBox="0 0 376.048 86.28">
  <g id="Group_1" data-name="Group 1" transform="translate(-30.531 -6)">
    <path id="Path_1" data-name="Path 1" d="M80.657,89.349a1.416,1.416,0,0,1-.32.9,2.324,2.324,0,0,1-1.069.643,10.143,10.143,0,0,1-1.987.394,25.407,25.407,0,0,1-3.125.155,26.782,26.782,0,0,1-3.206-.155,9.613,9.613,0,0,1-1.98-.394,2.283,2.283,0,0,1-1.043-.643,1.4,1.4,0,0,1-.323-.9V63.393H43.584V89.349a1.446,1.446,0,0,1-.3.9,2.14,2.14,0,0,1-1.042.643,10.124,10.124,0,0,1-1.988.394,25.914,25.914,0,0,1-3.176.155,26.048,26.048,0,0,1-3.149-.155,10.155,10.155,0,0,1-2.012-.394,2.278,2.278,0,0,1-1.064-.643,1.4,1.4,0,0,1-.325-.9V28.7a1.384,1.384,0,0,1,.325-.89,2.273,2.273,0,0,1,1.064-.647,10.377,10.377,0,0,1,2.012-.394,27.177,27.177,0,0,1,3.149-.153,27.021,27.021,0,0,1,3.176.153,10.35,10.35,0,0,1,1.988.394,2.136,2.136,0,0,1,1.042.647,1.431,1.431,0,0,1,.3.89V52.277H67.6V28.7a1.382,1.382,0,0,1,.323-.89,2.278,2.278,0,0,1,1.043-.647,9.818,9.818,0,0,1,1.98-.394,27.937,27.937,0,0,1,3.206-.153,26.5,26.5,0,0,1,3.125.153,10.37,10.37,0,0,1,1.987.394,2.319,2.319,0,0,1,1.069.647,1.4,1.4,0,0,1,.32.89V89.349" fill="#9aa3b2"/>
    <path id="Path_2" data-name="Path 2" d="M146,58.284a47.391,47.391,0,0,1-1.989,14.29,28.8,28.8,0,0,1-5.9,10.695,25.416,25.416,0,0,1-9.706,6.7,35.922,35.922,0,0,1-13.372,2.31,39.562,39.562,0,0,1-13.077-1.964,22.657,22.657,0,0,1-9.306-5.98,25.586,25.586,0,0,1-5.585-10.22,51.5,51.5,0,0,1-1.862-14.691A45.975,45.975,0,0,1,87.193,45.4a28.637,28.637,0,0,1,5.908-10.6,25.724,25.724,0,0,1,9.7-6.7,35.621,35.621,0,0,1,13.423-2.332A39.184,39.184,0,0,1,129.1,27.714a22.669,22.669,0,0,1,9.332,5.954,25.986,25.986,0,0,1,5.656,10.146A48.972,48.972,0,0,1,146,58.284m-13.7.692a49.115,49.115,0,0,0-.794-9.206,19.856,19.856,0,0,0-2.706-7.1,12.952,12.952,0,0,0-5.087-4.566,17.457,17.457,0,0,0-7.941-1.61,16.218,16.218,0,0,0-8.039,1.809,14.758,14.758,0,0,0-5.209,4.837,19.984,19.984,0,0,0-2.8,7.074,42.718,42.718,0,0,0-.819,8.561,50.9,50.9,0,0,0,.793,9.453,20.353,20.353,0,0,0,2.679,7.172,12.339,12.339,0,0,0,5.062,4.546,18.111,18.111,0,0,0,7.991,1.56,16.415,16.415,0,0,0,8.041-1.787,14.451,14.451,0,0,0,5.211-4.866,20.42,20.42,0,0,0,2.8-7.169A43.9,43.9,0,0,0,132.3,58.976Z" fill="#9aa3b2"/>
    <path id="Path_3" data-name="Path 3" d="M190.061,71.879a19.863,19.863,0,0,1-1.886,8.886,18.374,18.374,0,0,1-5.114,6.377,22.19,22.19,0,0,1-7.543,3.846,31.978,31.978,0,0,1-9.227,1.29,33.308,33.308,0,0,1-6.18-.543,35.994,35.994,0,0,1-5.035-1.318,22.434,22.434,0,0,1-3.652-1.614,10.435,10.435,0,0,1-2.108-1.489,3.715,3.715,0,0,1-.916-1.86,16.937,16.937,0,0,1-.275-3.5c0-1.028.032-1.888.1-2.588a7.681,7.681,0,0,1,.319-1.686,1.919,1.919,0,0,1,.6-.919,1.474,1.474,0,0,1,.871-.271,4.117,4.117,0,0,1,1.959.817,33,33,0,0,0,3.252,1.811,28.732,28.732,0,0,0,4.736,1.814,22.421,22.421,0,0,0,6.377.819,14.528,14.528,0,0,0,4.273-.573,9.487,9.487,0,0,0,3.2-1.61,6.835,6.835,0,0,0,2.01-2.582,8.264,8.264,0,0,0,.694-3.424,6.031,6.031,0,0,0-1.188-3.745,11.777,11.777,0,0,0-3.1-2.778,31.647,31.647,0,0,0-4.339-2.287q-2.435-1.062-5.014-2.258a45.714,45.714,0,0,1-5.013-2.7,20.291,20.291,0,0,1-4.343-3.625,16.966,16.966,0,0,1-3.1-4.985,18.014,18.014,0,0,1-1.193-6.9,18.159,18.159,0,0,1,1.717-8.114,16.641,16.641,0,0,1,4.613-5.811,19.666,19.666,0,0,1,6.851-3.444,30.824,30.824,0,0,1,12.928-.793,31.083,31.083,0,0,1,4.264.943,23.568,23.568,0,0,1,3.525,1.339,8.221,8.221,0,0,1,2.037,1.238,3.778,3.778,0,0,1,.668.845,3.857,3.857,0,0,1,.3.919,9.318,9.318,0,0,1,.174,1.44c.032.577.051,1.3.051,2.16,0,.958-.028,1.769-.074,2.429a9.444,9.444,0,0,1-.25,1.638,1.968,1.968,0,0,1-.5.944,1.227,1.227,0,0,1-.868.3,4.106,4.106,0,0,1-1.738-.7q-1.188-.693-2.929-1.512a28.1,28.1,0,0,0-4.019-1.488,17.736,17.736,0,0,0-5.011-.668,12.036,12.036,0,0,0-3.722.517,7.735,7.735,0,0,0-2.656,1.44,5.747,5.747,0,0,0-1.589,2.209,7.21,7.21,0,0,0-.521,2.729,6.047,6.047,0,0,0,1.163,3.7,11.316,11.316,0,0,0,3.13,2.78,33.5,33.5,0,0,0,4.445,2.279q2.479,1.071,5.059,2.259a49.5,49.5,0,0,1,5.061,2.708,20.138,20.138,0,0,1,4.421,3.623,16.673,16.673,0,0,1,3.122,4.961,17.4,17.4,0,0,1,1.192,6.723" fill="#9aa3b2"/>
    <path id="Path_4" data-name="Path 4" d="M231.664,86.028a19.154,19.154,0,0,1-.124,2.4A6.34,6.34,0,0,1,231.171,90a1.989,1.989,0,0,1-.624.866,1.3,1.3,0,0,1-.814.276H197.472a4.055,4.055,0,0,1-2.757-.972,3.953,3.953,0,0,1-1.115-3.15V31.036a3.966,3.966,0,0,1,1.115-3.15,4.076,4.076,0,0,1,2.757-.968h32.059a1.318,1.318,0,0,1,.792.248,1.91,1.91,0,0,1,.6.87,6.882,6.882,0,0,1,.374,1.589,20.338,20.338,0,0,1,.119,2.454,19.4,19.4,0,0,1-.119,2.359A6.509,6.509,0,0,1,230.921,36a2.1,2.1,0,0,1-.6.868,1.253,1.253,0,0,1-.792.274H206.6V52.824h19.409a1.377,1.377,0,0,1,.816.27,2.026,2.026,0,0,1,.618.846,5.938,5.938,0,0,1,.375,1.539,22.692,22.692,0,0,1,0,4.738,5.822,5.822,0,0,1-.375,1.515,1.8,1.8,0,0,1-.618.82,1.456,1.456,0,0,1-.816.248H206.6V80.915h23.131a1.345,1.345,0,0,1,.814.27,2.043,2.043,0,0,1,.624.874,6.229,6.229,0,0,1,.369,1.559,19.192,19.192,0,0,1,.124,2.41" fill="#9aa3b2"/>
    <path id="Path_5" data-name="Path 5" d="M271.429,85.678a19.626,19.626,0,0,1-.128,2.5,7.517,7.517,0,0,1-.372,1.69,2.134,2.134,0,0,1-.619.968,1.342,1.342,0,0,1-.866.3H240a4.064,4.064,0,0,1-2.756-.972,3.956,3.956,0,0,1-1.115-3.15V28.7a1.378,1.378,0,0,1,.319-.89,2.305,2.305,0,0,1,1.071-.647,10.349,10.349,0,0,1,2.011-.394,32.812,32.812,0,0,1,6.33,0,10.222,10.222,0,0,1,1.979.394,2.313,2.313,0,0,1,1.073.647,1.374,1.374,0,0,1,.326.89V80.366h20.2a1.426,1.426,0,0,1,.866.276,1.956,1.956,0,0,1,.619.893,6.671,6.671,0,0,1,.372,1.638,19.58,19.58,0,0,1,.128,2.505" fill="#9aa3b2"/>
    <path id="Path_6" data-name="Path 6" d="M289.7,89.349a1.381,1.381,0,0,1-.324.9,2.259,2.259,0,0,1-1.067.643,9.87,9.87,0,0,1-1.982.394,32.379,32.379,0,0,1-6.329,0,10.133,10.133,0,0,1-2.009-.394,2.286,2.286,0,0,1-1.066-.643,1.389,1.389,0,0,1-.321-.9V28.7a1.374,1.374,0,0,1,.321-.89,2.273,2.273,0,0,1,1.088-.647,11.057,11.057,0,0,1,2.013-.394,26.519,26.519,0,0,1,3.126-.153,27.123,27.123,0,0,1,3.177.153,10.086,10.086,0,0,1,1.982.394,2.253,2.253,0,0,1,1.067.647,1.366,1.366,0,0,1,.324.89V89.349" fill="#9aa3b2"/>
    <path id="Path_7" data-name="Path 7" d="M350.006,86.569a4.921,4.921,0,0,1-.4,2.039,4.167,4.167,0,0,1-1.069,1.483,4,4,0,0,1-1.583.87,6.447,6.447,0,0,1-1.858.275h-5.561a11.39,11.39,0,0,1-3-.349,5.915,5.915,0,0,1-2.33-1.265,11.117,11.117,0,0,1-2.062-2.48c-.66-1.044-1.411-2.392-2.236-4.046l-15.98-30.028q-1.388-2.675-2.826-5.779t-2.58-6.028h-.1q.2,3.571.3,7.12t.106,7.32V89.3a1.578,1.578,0,0,1-.276.895,2.041,2.041,0,0,1-.946.668,7.193,7.193,0,0,1-1.813.418,21.874,21.874,0,0,1-2.924.157,21.561,21.561,0,0,1-2.879-.157,6.757,6.757,0,0,1-1.784-.418,1.858,1.858,0,0,1-.9-.668,1.668,1.668,0,0,1-.246-.895V31.585a4.357,4.357,0,0,1,1.366-3.5,4.964,4.964,0,0,1,3.349-1.166h7a13.451,13.451,0,0,1,3.182.322,6.694,6.694,0,0,1,2.3,1.066,8.224,8.224,0,0,1,1.9,2.058,26.911,26.911,0,0,1,1.84,3.252L330.5,57.091q1.09,2.133,2.158,4.195t2.064,4.118c.654,1.374,1.3,2.72,1.927,4.043s1.243,2.65,1.833,3.976h.057c-.1-2.32-.176-4.734-.221-7.247s-.074-4.914-.074-7.2V28.852a1.421,1.421,0,0,1,.3-.89,2.371,2.371,0,0,1,.992-.7,6.545,6.545,0,0,1,1.841-.42,28.067,28.067,0,0,1,2.924-.124,27.186,27.186,0,0,1,2.83.124,5.652,5.652,0,0,1,1.759.42,1.99,1.99,0,0,1,.87.7,1.656,1.656,0,0,1,.25.89V86.569" fill="#9aa3b2"/>
    <path id="Path_8" data-name="Path 8" d="M404.253,89.2a1.73,1.73,0,0,1-.27.965,2,2,0,0,1-1.049.7,9.328,9.328,0,0,1-2.109.42,29.572,29.572,0,0,1-3.375.155,29.977,29.977,0,0,1-4.638-.252,4.591,4.591,0,0,1-2.038-.745,3.343,3.343,0,0,1-.96-1.188L370.407,58.781V89.253a1.508,1.508,0,0,1-.3.942,2.19,2.19,0,0,1-1.037.668,8.712,8.712,0,0,1-1.992.42,32.369,32.369,0,0,1-6.328,0,8.705,8.705,0,0,1-2.009-.42,2.388,2.388,0,0,1-1.067-.668,1.461,1.461,0,0,1-.321-.942v-60.5a1.452,1.452,0,0,1,.321-.94,2.29,2.29,0,0,1,1.067-.647,10.371,10.371,0,0,1,2.009-.394,33.224,33.224,0,0,1,6.328,0,10.4,10.4,0,0,1,1.992.394,2.1,2.1,0,0,1,1.037.647,1.5,1.5,0,0,1,.3.94V56.1L389.22,28.8a3.639,3.639,0,0,1,.836-1.068,3.706,3.706,0,0,1,1.292-.666,9.747,9.747,0,0,1,2.033-.351q1.242-.1,3.18-.1a28.939,28.939,0,0,1,3.271.151,9.7,9.7,0,0,1,2.058.418,2.191,2.191,0,0,1,1.067.672,1.41,1.41,0,0,1,.3.891,3.911,3.911,0,0,1-.445,1.739c-.3.594-.862,1.537-1.687,2.83L383.508,56.4l19.2,29.034a21.684,21.684,0,0,1,1.317,2.707,3.413,3.413,0,0,1,.229,1.065" fill="#9aa3b2"/>
    <path id="Path_9" data-name="Path 9" d="M399.043,6a7.428,7.428,0,1,1-7.674,7.4A7.485,7.485,0,0,1,398.995,6h.048m-.094,1.49a5.743,5.743,0,0,0-5.686,5.912,5.736,5.736,0,0,0,5.78,5.913,5.654,5.654,0,0,0,5.641-5.913,5.716,5.716,0,0,0-5.689-5.912Zm-1.129,9.748h-1.713V9.883a14.228,14.228,0,0,1,2.842-.272,4.219,4.219,0,0,1,2.576.587,2.035,2.035,0,0,1,.721,1.58,1.9,1.9,0,0,1-1.535,1.761v.087c.722.227,1.126.816,1.356,1.808a4.846,4.846,0,0,0,.539,1.8h-1.852a5.872,5.872,0,0,1-.586-1.759c-.135-.813-.589-1.174-1.534-1.174h-.814Zm.046-4.152h.814c.947,0,1.713-.316,1.713-1.083,0-.676-.495-1.129-1.58-1.129a4.051,4.051,0,0,0-.947.091Z" fill="#9aa3b2"/>
  </g>
</svg>