<svg class="logo-svg" preserveAspectRatio="xMidYMid meet" id="Warstwa_1" data-name="Warstwa 1" xmlns="http://www.w3.org/2000/svg" version="1.1" viewBox="0 0 1654 1018.5">
  <defs>
    <style>
      .cls-1 {
        fill:#9aa3b2;
      }

      .cls-1, .cls-2 {
        stroke-width: 0px;
      }

      .cls-2 {
        fill:#9aa3b2;
      }
    </style>
  </defs>
  <g>
    <rect class="cls-1" x=".49" width="1653.03" height="595.09"/>
    <path class="cls-2" d="M1088.66,92.06l-76.85,14.32c-3.96.77-6.94,4.31-6.94,8.32v330.85c.19,9.3-6.77,14.25-20.84,14.56h-3.03c-14.14-.32-20.91-5.26-20.83-14.56V126.23c0-5.34-4.79-9.39-10.1-8.38l-78.81,14.66c-3.96.81-6.94,4.27-6.94,8.37v304.67c.66,26.51,11.82,47.25,33.11,62.34,20.1,14,46.87,20.9,80.34,21.07h7.5c33.48-.18,60.27-7.08,80.34-21.07,21.34-15.09,32.41-35.82,33.13-62.34V100.46c0-5.36-4.85-9.3-10.08-8.4M823.9,141.29l-76.85,14.35c-3.98.74-6.92,4.18-6.92,8.31v281.6c.14,9.3-6.8,14.25-20.85,14.56h-2.89c-14.09-.32-20.97-5.26-20.75-14.56l-.23-270.25c0-5.27-4.77-9.31-10.07-8.3l-78.69,14.75c-3.96.7-6.94,4.24-6.94,8.3v255.5c.68,26.51,11.82,47.25,33.15,62.34,20.07,14,46.93,20.9,80.3,21.07h7.54c33.23-.18,60.08-7.08,80.29-21.07,21.35-15.09,32.32-35.82,32.98-62.34V149.7c0-5.35-4.87-9.31-10.07-8.41M570.89,198.53c0-5.27-4.79-9.31-10.01-8.32l-76.86,14.35c-4.06.71-6.93,4.26-6.93,8.38v232.63c.19,9.3-6.84,14.25-20.82,14.56h-2.89c-14.14-.32-20.98-5.26-20.83-14.56l-.16-221.16c0-5.36-4.81-9.31-10.1-8.31l-78.48,14.54c-3.97.75-6.94,4.29-6.94,8.31v206.62c.51,26.51,11.64,47.25,32.97,62.34,20.06,14,46.86,20.9,80.49,21.07h7.35c33.38-.18,60.15-7.08,80.32-21.07,21.32-15.09,32.24-35.82,33.14-62.34l-.24-247.03ZM296.46,84.82l-79.58,14.81c-4.04.73-7.02,4.28-7.02,8.33v150.91l-48.41,9.04V120.15c0-5.29-4.79-9.31-10.1-8.33l-79.65,14.83c-3.98.74-6.96,4.28-6.96,8.31v379.01c0,5.61,4.56,10.05,10.08,10.05h76.62c5.54,0,10-4.44,10-9.98v-175.2l48.44-8.96-.03,184.08c0,5.61,4.57,10.05,10.09,10.05h76.61c5.45,0,10-4.36,10-9.98V93.21c0-5.35-4.9-9.38-10.1-8.38M1362.26,292.89v-31.22c0-4.27-3.48-7.8-7.84-7.8h-98.09c-4.38,0-7.77,3.53-7.77,7.8v59.7c0,4.29,3.47,7.81,7.77,7.81h12.32v116.38c.16,9.3-6.77,14.25-20.99,14.56h-2.91c-14.19-.32-20.99-5.26-20.82-14.56V148.89c.19-6.6,3.9-10.88,11.57-12.76,2.56-.67,5.72-1,9.25-1h2.91c3.29,0,5.95.33,8.33.89,8.34,1.82,12.65,6.43,12.65,13.75v39.38c0,5.35,4.87,9.38,10.08,8.41l76.42-14.26c4.05-.75,6.95-4.28,6.95-8.33v-31.87c-2.14-23.44-13.15-41.96-32.72-55.7-16.05-11.3-36.35-18.04-60.73-20.27-6.29-.66-12.98-1-19.58-1h-7.37c-6.19,0-12.13.34-17.77.84-25.47,2.22-46.27,8.97-62.79,20.43-21.15,14.79-32.23,35.39-33.15,61.5v296.67c.78,26.44,11.81,47.2,33.15,62.4,20.15,13.93,46.94,20.84,80.56,21.01h7.37c33.45-.18,60.13-7.08,80.31-21.01,21.33-15.2,32.24-35.96,33.07-62.4l-.18-152.67ZM1483.9,145.99v108.06h50.32c4.38,0,7.86,3.51,7.86,7.81v59.67c0,4.3-3.47,7.84-7.86,7.84h-50.32v118.82h92.3c5.22,0,9.34,4.18,9.34,9.38v57.47c0,4.13-3.31,7.49-7.52,7.49h-177.89c-5.07,0-9.19-4.12-9.19-9.15V79.86c0-4.7,3.81-8.47,8.52-8.47h177.92c4.52,0,8.17,3.72,8.17,8.15v57.47c0,4.86-3.97,8.91-8.84,8.91l-92.79.06Z"/>
  </g>
  <g>
    <path class="cls-2" d="M84.05,790.24c20.1,0,35.95,5.16,47.57,15.49,11.62,10.33,17.42,23.85,17.42,40.58s-5.81,30.31-17.42,40.51-27.47,15.31-47.57,15.31h-29.66v38.95l18.81,3.62v21.1H.49v-21.1l18.69-3.62v-126.01l-18.69-3.62v-21.22h83.56ZM54.39,875.01h29.66c9.81,0,17.22-2.67,22.25-8.02,5.02-5.35,7.54-12.16,7.54-20.44s-2.51-15.41-7.54-20.92c-5.02-5.51-12.44-8.26-22.25-8.26h-29.66v57.64Z"/>
    <path class="cls-2" d="M157.36,798.92v-21.22h54.02v163.39l17,3.62v21.1h-69.21v-21.1l17-3.62v-138.55l-18.81-3.62Z"/>
    <path class="cls-2" d="M322.92,965.8c-.96-2.17-1.81-4.4-2.53-6.69s-1.29-4.6-1.69-6.93c-4.18,4.82-9.26,8.72-15.25,11.7s-12.84,4.46-20.56,4.46c-12.78,0-22.93-3.48-30.45-10.43-7.52-6.95-11.27-16.42-11.27-28.4s4.9-21.66,14.71-28.34c9.81-6.67,24.2-10.01,43.17-10.01h17.97v-12.78c0-6.27-1.81-11.13-5.43-14.59-3.62-3.46-8.96-5.18-16.04-5.18-4.02,0-7.6.46-10.73,1.39s-5.67,2.03-7.6,3.32l-2.29,13.99h-26.53l.12-28.94c6.43-4.34,13.81-8,22.13-10.97,8.32-2.97,17.38-4.46,27.19-4.46,16.16,0,29.28,3.96,39.37,11.88s15.13,19.19,15.13,33.82v53.9c0,2.01.02,3.9.06,5.67s.18,3.46.42,5.06l10.73,1.45v21.1h-40.64ZM292.41,942.29c5.31,0,10.13-1.15,14.47-3.44,4.34-2.29,7.72-5.16,10.13-8.62v-19.9h-17.97c-7.48,0-13.14,1.75-17,5.25-3.86,3.5-5.79,7.7-5.79,12.6,0,4.42,1.43,7.88,4.28,10.37,2.85,2.49,6.81,3.74,11.88,3.74Z"/>
    <path class="cls-2" d="M508.73,856.56l-12.18,1.81-47.99,126.97c-3.78,9.41-8.82,17.28-15.13,23.63-6.31,6.35-15.82,9.53-28.52,9.53-2.97,0-5.77-.24-8.38-.72s-5.69-1.17-9.22-2.05l4.1-25.68c1.13.16,2.29.32,3.5.48s2.25.24,3.14.24c5.87,0,10.37-1.43,13.5-4.28,3.14-2.85,5.55-6.41,7.23-10.67l3.98-9.89-41.36-107.44-12.18-1.93v-21.22h63.91v21.22l-14.59,2.41,17.85,52.09,1.81,9.41.72.12,20.62-61.62-14.71-2.41v-21.22h63.91v21.22Z"/>
    <path class="cls-2" d="M734.09,790.24v46.78h-27.01l-1.45-19.65h-32.32v123.71l18.81,3.62v21.1h-72.83v-21.1l18.81-3.62v-123.71h-32.19l-1.45,19.65h-26.89v-46.78h156.51Z"/>
    <path class="cls-2" d="M736.87,899.36c0-19.45,5.45-35.39,16.34-47.81,10.89-12.42,25.94-18.63,45.16-18.63s34.39,6.19,45.28,18.57c10.89,12.38,16.34,28.34,16.34,47.87v2.53c0,19.61-5.45,35.59-16.34,47.93-10.89,12.34-25.9,18.51-45.04,18.51s-34.51-6.17-45.4-18.51c-10.89-12.34-16.34-28.32-16.34-47.93v-2.53ZM772.08,901.9c0,11.9,2.09,21.44,6.27,28.64,4.18,7.19,10.93,10.79,20.26,10.79s15.74-3.62,19.96-10.85c4.22-7.23,6.33-16.76,6.33-28.58v-2.53c0-11.58-2.13-21.02-6.39-28.34-4.26-7.32-10.97-10.97-20.14-10.97s-15.84,3.66-20.02,10.97c-4.18,7.32-6.27,16.76-6.27,28.34v2.53Z"/>
    <path class="cls-2" d="M877.46,901.65c0-20.58,4.48-37.18,13.44-49.8s21.52-18.93,37.68-18.93c7.32,0,13.75,1.63,19.29,4.88,5.55,3.26,10.29,7.9,14.23,13.93l2.53-16.4h30.63v126.61c0,17.2-5.41,30.93-16.22,41.18-10.81,10.25-25.66,15.37-44.55,15.37-6.59,0-13.59-.9-20.98-2.71-7.4-1.81-14.23-4.28-20.5-7.42l6.51-24.72c5.63,2.41,11.25,4.32,16.88,5.73s11.58,2.11,17.85,2.11c8.6,0,15.03-2.61,19.29-7.84,4.26-5.23,6.39-12.5,6.39-21.82v-8.56c-3.86,4.9-8.4,8.64-13.63,11.21-5.23,2.57-11.21,3.86-17.97,3.86-16,0-28.48-5.89-37.44-17.66-8.96-11.78-13.44-27.27-13.44-46.48v-2.53ZM912.67,904.19c0,11.41,1.93,20.4,5.79,26.95,3.86,6.55,10.13,9.83,18.81,9.83,5.39,0,9.95-.98,13.69-2.95,3.74-1.97,6.73-4.84,8.98-8.62v-56.67c-2.25-3.94-5.25-6.99-8.98-9.16-3.74-2.17-8.22-3.26-13.44-3.26-8.6,0-14.89,3.82-18.87,11.46-3.98,7.64-5.97,17.6-5.97,29.9v2.53Z"/>
    <path class="cls-2" d="M1078.83,968.34c-18.81,0-33.84-6.03-45.1-18.09-11.25-12.06-16.88-27.37-16.88-45.94v-4.82c0-19.37,5.33-35.33,15.98-47.87s24.94-18.77,42.87-18.69c17.6,0,31.27,5.31,41,15.92,9.73,10.61,14.59,24.96,14.59,43.05v19.17h-77.89l-.24.72c.64,8.6,3.52,15.68,8.62,21.22,5.1,5.55,12.04,8.32,20.8,8.32,7.8,0,14.27-.78,19.41-2.35s10.77-4.04,16.88-7.42l9.53,21.7c-5.39,4.26-12.36,7.84-20.92,10.73-8.56,2.89-18.11,4.34-28.64,4.34ZM1075.7,860.05c-6.51,0-11.66,2.49-15.43,7.48-3.78,4.98-6.11,11.54-6.99,19.65l.36.6h43.17v-3.14c0-7.48-1.75-13.44-5.25-17.91s-8.78-6.69-15.86-6.69Z"/>
    <path class="cls-2" d="M1199.89,803.38v31.95h22.91v24.72h-22.91v66.44c0,5.06,1.05,8.68,3.14,10.85s4.9,3.26,8.44,3.26c2.41,0,4.52-.1,6.33-.3s3.84-.54,6.09-1.02l3.01,25.44c-3.94,1.21-7.84,2.11-11.7,2.71-3.86.6-8.04.9-12.54.9-12.14,0-21.48-3.34-28.03-10.01-6.55-6.67-9.83-17.24-9.83-31.71v-66.56h-19.17v-24.72h19.17v-31.95h35.09Z"/>
    <path class="cls-2" d="M1238.12,944.7l17-3.62v-138.55l-18.81-3.62v-21.22h53.9v74.28c4.1-6.03,9.12-10.71,15.07-14.05s12.54-5,19.78-5c13.67,0,24.38,4.52,32.13,13.57,7.76,9.04,11.64,23.01,11.64,41.9v52.69l16.88,3.62v21.1h-67.28v-21.1l15.19-3.62v-52.93c0-10.13-1.79-17.3-5.37-21.52s-8.9-6.33-15.98-6.33c-4.9,0-9.18.88-12.84,2.65-3.66,1.77-6.73,4.26-9.22,7.48v70.66l15.19,3.62v21.1h-67.28v-21.1Z"/>
    <path class="cls-2" d="M1458.29,968.34c-18.81,0-33.84-6.03-45.1-18.09-11.25-12.06-16.88-27.37-16.88-45.94v-4.82c0-19.37,5.33-35.33,15.98-47.87s24.94-18.77,42.87-18.69c17.6,0,31.27,5.31,41,15.92,9.73,10.61,14.59,24.96,14.59,43.05v19.17h-77.89l-.24.72c.64,8.6,3.52,15.68,8.62,21.22,5.1,5.55,12.04,8.32,20.8,8.32,7.8,0,14.27-.78,19.41-2.35,5.14-1.57,10.77-4.04,16.88-7.42l9.53,21.7c-5.39,4.26-12.36,7.84-20.92,10.73-8.56,2.89-18.11,4.34-28.64,4.34ZM1455.16,860.05c-6.51,0-11.66,2.49-15.43,7.48-3.78,4.98-6.11,11.54-6.99,19.65l.36.6h43.17v-3.14c0-7.48-1.75-13.44-5.25-17.91s-8.78-6.69-15.86-6.69Z"/>
    <path class="cls-2" d="M1530.04,944.7l16.88-3.62v-80.91l-18.69-3.62v-21.22h51.49l1.57,19.05c3.05-6.75,6.99-12.02,11.82-15.8,4.82-3.78,10.41-5.67,16.76-5.67,1.85,0,3.8.14,5.85.42s3.76.62,5.12,1.02l-3.74,32.07-14.47-.36c-5.14,0-9.41,1-12.78,3.01s-5.95,4.86-7.72,8.56v63.42l16.88,3.62v21.1h-68.97v-21.1Z"/>
    <path class="cls-2" d="M1653.51,965.8h-35.09v-30.87h35.09v30.87Z"/>
  </g>
</svg>