<svg class="logo-svg" preserveAspectRatio="xMidYMid meet" viewBox="0 0 135 46" fill="none" xmlns="http://www.w3.org/2000/svg">
<path d="M110.231 27.0486C109.873 27.0482 109.519 26.9708 109.193 26.8213C108.867 26.6719 108.576 26.454 108.339 26.182C108.102 25.91 107.926 25.5901 107.821 25.2437C107.716 24.8973 107.685 24.5323 107.73 24.1728C107.697 23.8187 107.737 23.4614 107.848 23.1238C107.959 22.7863 108.139 22.476 108.375 22.2127C108.612 21.9495 108.9 21.7392 109.222 21.5953C109.543 21.4514 109.891 21.377 110.243 21.377C110.594 21.377 110.942 21.4514 111.263 21.5953C111.585 21.7392 111.873 21.9495 112.11 22.2127C112.346 22.476 112.526 22.7863 112.637 23.1238C112.748 23.4614 112.788 23.8187 112.755 24.1728C112.8 24.5342 112.769 24.9012 112.663 25.2492C112.556 25.5973 112.378 25.9182 112.139 26.1906C111.899 26.463 111.606 26.6805 111.277 26.8285C110.948 26.9765 110.591 27.0515 110.231 27.0486ZM95.4518 27.0486C95.0937 27.0482 94.7398 26.9708 94.4136 26.8213C94.0873 26.6719 93.7963 26.454 93.5597 26.182C93.3231 25.91 93.1465 25.5901 93.0415 25.2437C92.9365 24.8973 92.9055 24.5323 92.9507 24.1728C92.9174 23.8187 92.9575 23.4614 93.0686 23.1238C93.1797 22.7863 93.3593 22.476 93.5959 22.2127C93.8324 21.9495 94.1207 21.7392 94.4423 21.5953C94.7638 21.4514 95.1116 21.377 95.4632 21.377C95.8148 21.377 96.1625 21.4514 96.4841 21.5953C96.8056 21.7392 97.0939 21.9495 97.3305 22.2127C97.567 22.476 97.7466 22.7863 97.8577 23.1238C97.9688 23.4614 98.009 23.8187 97.9757 24.1728C98.0206 24.5304 97.9902 24.8935 97.8866 25.2383C97.7829 25.5831 97.6083 25.9018 97.3742 26.1734C97.1401 26.445 96.8518 26.6634 96.5283 26.8143C96.2048 26.9651 95.8535 27.045 95.4973 27.0486H95.4518ZM112.323 29.7403C115.165 29.7403 116.87 27.6698 116.87 24.1728C116.87 20.6759 115.233 18.6054 112.323 18.6054C111.401 18.5007 110.473 18.7499 109.724 19.3036C108.975 19.8574 108.458 20.6755 108.276 21.5961H107.685L107.889 18.9504H103.865V34.4106H107.889V29.5103L107.685 26.8415H108.276C108.472 27.739 108.989 28.5314 109.728 29.0664C110.467 29.6015 111.375 29.8415 112.278 29.7403H112.323ZM97.4982 29.7403C100.34 29.7403 102.046 27.6698 102.046 24.1728C102.046 20.6759 100.409 18.6054 97.4982 18.6054C96.5833 18.5128 95.6672 18.7677 94.9276 19.3204C94.1881 19.8731 93.678 20.6842 93.4964 21.5961H92.9052L93.2235 18.8584H89.0853V34.3185H93.2235V29.5103L93.0189 26.8415H93.6101C93.8064 27.739 94.3236 28.5314 95.0623 29.0664C95.8009 29.6015 96.7089 29.8415 97.6119 29.7403H97.4982ZM59.1174 21.5961C59.1174 20.906 59.7313 20.5839 60.709 20.5839C61.6867 20.5839 62.3916 20.952 62.528 21.7802H66.3706C66.1432 19.6406 64.0969 18.5593 60.7317 18.5593C57.3666 18.5593 55.2065 19.7096 55.2065 21.9873C55.2065 23.7127 56.2979 24.863 58.8445 25.2081L61.2547 25.5532C62.3461 25.6912 62.7554 26.0363 62.7554 26.6115C62.7554 27.1866 61.9823 27.6698 60.8681 27.6698C59.754 27.6698 58.9127 27.3017 58.7536 26.4044H54.9337C55.1838 28.544 57.2074 29.6943 60.7317 29.6943C64.256 29.6943 66.6662 28.498 66.6662 26.1974C66.6662 24.5869 65.6657 23.5287 63.0509 23.1376L60.5271 22.7695C59.5721 22.5854 59.1174 22.2403 59.1174 21.5961ZM118.371 14.9244V18.2373H122.1V19.0195C121.643 18.9834 121.183 19.0457 120.751 19.2022C120.32 19.3586 119.925 19.6058 119.595 19.9274C119.264 20.2489 119.004 20.6377 118.833 21.068C118.661 21.4984 118.581 21.9606 118.599 22.4244V29.5793H122.782V18.9504V14.9244H118.371ZM82.5369 14.9244V18.2373H86.2431V19.0195C85.7936 18.9875 85.3423 19.0505 84.9181 19.2044C84.4938 19.3582 84.1058 19.5997 83.7787 19.9134C83.4516 20.227 83.1925 20.6061 83.0179 21.0265C82.8432 21.4469 82.7569 21.8994 82.7643 22.3554V29.5103H86.8343V18.9504V14.9244H82.5369ZM126.693 25.1851C126.693 28.682 128.83 29.7863 131.673 29.7863C132.508 29.7714 133.339 29.6634 134.151 29.4642V26.4734C133.66 26.6393 133.145 26.7247 132.628 26.7265C131.468 26.7265 130.718 26.2894 130.718 24.702V21.5961H134.151V18.8584H127.512V18.2603C129.649 18.2603 130.922 17.202 130.922 15.4305V14.3032H127.011V18.9044H124.374V21.5961H126.648L126.693 25.1851ZM74.738 21.2971C74.9901 21.2757 75.2439 21.3106 75.4812 21.3993C75.7186 21.4881 75.9338 21.6285 76.1116 21.8106C76.2895 21.9927 76.4256 22.2122 76.5104 22.4534C76.5952 22.6946 76.6266 22.9517 76.6025 23.2066V29.5103H80.627V22.9995C80.7048 22.4356 80.6585 21.8612 80.4913 21.3175C80.3242 20.7738 80.0404 20.2741 79.6602 19.8543C79.2801 19.4344 78.8129 19.1048 78.2922 18.8889C77.7714 18.673 77.21 18.5762 76.6479 18.6054C75.777 18.5542 74.9183 18.8317 74.2378 19.3841C73.5574 19.9366 73.1037 20.7248 72.9645 21.5961H72.396L72.5779 18.9504V13.9581H68.5534V29.5103H72.5779V23.7587C72.5564 23.4528 72.5955 23.1456 72.693 22.8552C72.7905 22.5648 72.9444 22.297 73.1456 22.0676C73.3469 21.8383 73.5914 21.652 73.8649 21.5196C74.1384 21.3873 74.4352 21.3116 74.738 21.2971ZM41.3822 31.4888C40.0443 30.4422 38.5082 29.6849 36.8692 29.2638C35.2301 28.8427 33.5231 28.7668 31.8538 29.0407C30.1846 29.3147 28.5888 29.9326 27.1653 30.8564C25.7418 31.7801 24.5211 32.9898 23.5787 34.4106H23.0103C23.0103 22.9075 35.334 13.2219 52.569 13.2219V13.0379L28.2626 0.890625C12.9149 0.890625 0 13.8201 0 26.7265L13.0968 30.7986C11.6127 32.1046 10.4211 33.7159 9.60162 35.525C8.78213 37.3341 8.3536 39.2993 8.34464 41.2894L26.671 45.8906C26.9318 42.0986 28.5867 38.5429 31.3096 35.9241C34.0325 33.3053 37.626 31.8132 41.3822 31.7419V31.4888Z" fill="#9aa3b2"></path>
</svg>