<svg class="logo-svg" preserveAspectRatio="xMidYMid meet" aria-label="WiseStamp Logo" fill="none" role="img" viewbox="0 0 154 22" xmlns="http://www.w3.org/2000/svg"> <path d="M143.507 6.72951V5.11374H140.27V21.8991H143.507V11.1374C143.507 10.6717 143.594 10.2364 143.77 9.82943C143.944 9.42042 144.185 9.06406 144.489 8.76035C144.793 8.45663 145.149 8.21569 145.556 8.03953C145.963 7.86338 146.409 7.77429 146.886 7.77429C147.364 7.77429 147.79 7.86338 148.205 8.03953C148.62 8.21569 148.984 8.45866 149.296 8.7644C149.608 9.07014 149.851 9.42852 150.027 9.83955C150.203 10.2506 150.29 10.6879 150.29 11.1557C150.29 11.6234 150.203 12.0891 150.027 12.5082C149.851 12.9273 149.608 13.2938 149.296 13.6056C148.984 13.9195 148.62 14.1645 148.205 14.3426C147.787 14.5188 147.35 14.6079 146.886 14.6079C146.423 14.6079 145.998 14.5127 145.568 14.3204L145.544 14.2961L144.345 16.4869V16.5112C145.127 17.1449 146.111 17.4628 147.295 17.4628C148.158 17.4628 148.974 17.2988 149.741 16.9708C150.509 16.6428 151.175 16.1953 151.744 15.6284C152.311 15.0614 152.76 14.3933 153.086 13.6259C153.414 12.8585 153.578 12.0344 153.578 11.1557C153.578 10.2769 153.414 9.48522 153.086 8.73403C152.758 7.98284 152.311 7.32479 151.744 6.75583C151.175 6.18889 150.509 5.73939 149.741 5.41341C148.974 5.08539 148.158 4.92139 147.295 4.92139C145.633 4.92139 144.37 5.52274 143.507 6.72748" fill="#9aa3b2"></path> <path d="M138.892 17.1048V8.92673C138.892 6.72176 137.238 4.99463 134.863 4.99463C133.377 4.99463 132.322 5.56966 131.674 6.86552C130.763 5.4988 129.995 4.99463 128.39 4.99463C126.784 4.99463 125.727 5.4745 124.938 7.03357V5.30644H122.012V17.1048H125.13V9.93507C125.13 8.40029 125.778 7.6329 127.025 7.6329C128.392 7.6329 128.896 8.11277 128.896 10.0059V17.1048H132.014V10.0545C132.014 8.61694 132.854 7.53774 134.004 7.53774C135.154 7.53774 135.851 8.54405 135.851 9.95936V17.1048H138.896H138.892Z" fill="#9aa3b2"></path> <path d="M117.222 11.2369V11.4535C117.141 12.7696 116.283 13.8731 115.11 14.3428C114.754 14.4967 114.341 14.5838 113.863 14.5838C113.385 14.5838 112.968 14.4967 112.569 14.3185C112.17 14.1424 111.814 13.9014 111.502 13.5957C111.19 13.29 110.947 12.9377 110.771 12.5368C110.595 12.1358 110.508 11.7106 110.508 11.2611C110.508 10.8117 110.595 10.3581 110.771 9.9491C110.947 9.5401 111.19 9.18779 111.502 8.89015C111.814 8.5925 112.17 8.35763 112.569 8.17945C112.968 8.0033 113.399 7.91421 113.863 7.91421C114.327 7.91421 114.738 7.99722 115.147 8.16528C115.554 8.33333 115.914 8.57023 116.226 8.87597C116.538 9.17969 116.781 9.53402 116.957 9.9329C117.133 10.3338 117.22 10.7651 117.22 11.2308M120.362 17.2464V5.25771H117.22V6.87348C116.773 6.28832 116.238 5.83882 115.614 5.53105C114.991 5.22127 114.264 5.06738 113.434 5.06738C112.604 5.06738 111.788 5.23139 111.036 5.5594C110.285 5.88741 109.629 6.33084 109.07 6.88967C108.509 7.44851 108.066 8.10454 107.74 8.85572C107.412 9.60691 107.248 10.4148 107.248 11.2773C107.248 12.1399 107.412 12.9235 107.74 13.6747C108.068 14.4259 108.512 15.0819 109.07 15.6407C109.629 16.1996 110.285 16.6389 111.036 16.9588C111.788 17.2788 112.585 17.4387 113.434 17.4387C114.584 17.4387 116.262 16.973 117.218 15.7663L117.204 15.748L117.222 15.7521V17.2464H120.364H120.362Z" fill="#9aa3b2"></path> <path d="M103.15 6.36133L104.637 9.0239H106.412V6.36133H103.15Z" fill="#9aa3b2"></path> <path d="M103.139 13.9398C102.876 13.6846 102.744 13.3728 102.744 13.0043V2.02197H99.5553V6.36105H97.8281V9.02362H99.5553V12.6196C99.5553 13.2432 99.6747 13.8264 99.9157 14.371C100.155 14.9157 100.479 15.3895 100.888 15.7985C101.295 16.2055 101.774 16.5254 102.325 16.7582C102.876 16.9911 103.463 17.1065 104.089 17.1065H106.415V14.3245H104.089C103.72 14.3245 103.404 14.1969 103.141 13.9418L103.139 13.9398Z" fill="#9aa3b2"></path> <path d="M96.2129 8.92453C95.7412 8.55602 95.1823 8.24623 94.5344 7.98908C93.8865 7.73396 93.1798 7.50111 92.4125 7.29256C91.7888 7.13261 91.234 6.97265 90.7461 6.81269H90.744C90.2561 6.65476 89.8491 6.47861 89.5211 6.28828C89.1931 6.09593 88.9461 5.88535 88.778 5.6525C88.6099 5.41965 88.5269 5.14428 88.5269 4.82437C88.5269 4.64822 88.5796 4.46599 88.6828 4.27363C88.7861 4.08128 88.9339 3.90918 89.1263 3.75732C89.3186 3.60546 89.5616 3.4779 89.8572 3.37464C90.1528 3.27137 90.5072 3.21873 90.9243 3.21873C91.5965 3.21873 92.2403 3.35034 92.8559 3.61356C93.4714 3.87678 94.1234 4.3364 94.8098 4.99243L97.5675 3.21873C97.2942 2.86642 96.956 2.50399 96.547 2.12738C96.1401 1.7528 95.6642 1.41669 95.1196 1.12107C94.5749 0.825453 93.9594 0.582481 93.273 0.390128C92.5846 0.19575 91.8172 0.100586 90.9688 0.100586C90.1204 0.100586 89.3895 0.218023 88.6788 0.448846C87.9681 0.681695 87.3485 1.01173 86.82 1.44503C86.2916 1.87631 85.8805 2.41085 85.5849 3.04257C85.2873 3.6743 85.1415 4.38297 85.1415 5.16858C85.1415 5.8894 85.2691 6.51505 85.5242 7.04149C85.7793 7.56996 86.1478 8.02351 86.6277 8.39809C87.1076 8.77469 87.6907 9.09461 88.3791 9.35783C89.0655 9.62307 89.841 9.85795 90.7035 10.0665C91.4061 10.2427 91.9913 10.4229 92.455 10.6071C92.9186 10.7914 93.2851 10.9837 93.5565 11.1821C93.8278 11.3826 94.0201 11.5871 94.1315 11.7956C94.2428 12.0042 94.2995 12.2188 94.2995 12.4436C94.2995 12.7635 94.2185 13.0328 94.0606 13.2474C93.9007 13.4641 93.6921 13.6443 93.437 13.788C93.1798 13.9318 92.8964 14.0371 92.5866 14.0998C92.2748 14.1626 91.967 14.195 91.6633 14.195C91.1834 14.195 90.744 14.1464 90.3452 14.0512C89.9443 13.9541 89.5778 13.8164 89.2417 13.6321C88.9076 13.4479 88.5877 13.2251 88.2819 12.9599C87.9782 12.6967 87.6745 12.397 87.3708 12.0609L84.5645 13.8346C84.8034 14.28 85.1516 14.7113 85.6092 15.1223C86.0648 15.5354 86.5953 15.9039 87.2047 16.2279C87.8122 16.5539 88.4885 16.8151 89.2315 17.0135C89.9746 17.2119 90.7542 17.3111 91.5701 17.3111C92.4489 17.3111 93.2608 17.1876 94.0039 16.9406C94.747 16.6936 95.3949 16.3413 95.9477 15.8857C96.4984 15.4301 96.9317 14.8814 97.2415 14.2436C97.5533 13.6038 97.7092 12.9012 97.7092 12.1338V12.0609C97.7092 11.3583 97.5776 10.7488 97.3144 10.2386C97.0512 9.72634 96.6827 9.28899 96.2129 8.92048V8.92453Z" fill="#9aa3b2"></path> <path d="M80.2285 6.74173C79.6697 6.18289 79.0136 5.73744 78.2624 5.41145C77.5113 5.08344 76.7115 4.91943 75.8651 4.91943C75.0188 4.91943 74.1906 5.08344 73.4313 5.41145C72.6721 5.74149 72.012 6.18491 71.4532 6.74375C70.8943 7.30259 70.4489 7.95861 70.1229 8.7098C69.7949 9.46099 69.6309 10.2689 69.6309 11.1314C69.6309 11.994 69.7949 12.7776 70.1229 13.5287C70.4509 14.2799 70.8943 14.936 71.4532 15.4948C72.012 16.0536 72.6721 16.493 73.4313 16.8129C74.1906 17.1328 75.0026 17.2928 75.8651 17.2928C76.8573 17.2928 77.7947 17.068 78.6836 16.6165C79.5704 16.165 80.3014 15.5353 80.8784 14.7315L80.927 14.6829L78.145 13.4579L78.0964 13.4336L78.0721 13.4579C77.7522 13.873 77.412 14.1423 77.0516 14.2617C76.6912 14.3812 76.2964 14.4399 75.8651 14.4399C75.3852 14.4399 74.954 14.3326 74.5693 14.1159C74.1846 13.9013 73.8586 13.634 73.5873 13.3161C73.3787 13.0712 73.2086 12.8059 73.075 12.5204H81.8827L81.907 12.4718C82.0022 12.0405 82.0508 11.5931 82.0508 11.1294C82.0508 10.2648 81.8868 9.45896 81.5588 8.70778C81.2308 7.95659 80.7873 7.30056 80.2285 6.74173ZM72.8887 10.0765C72.9171 9.97933 72.9474 9.88619 72.9839 9.79305C73.1438 9.3881 73.3625 9.03579 73.6439 8.7422C73.9234 8.44861 74.2554 8.21171 74.6401 8.03758C75.0228 7.86345 75.4318 7.77436 75.8631 7.77436C76.5657 7.77436 77.1772 7.98898 77.6975 8.42228C78.2159 8.85356 78.5884 9.40632 78.8132 10.0765H72.8887Z" fill="#9aa3b2"></path> <path d="M68.1062 11.18C67.7782 10.9249 67.3935 10.7062 66.9562 10.5199C66.5168 10.3357 66.0329 10.1555 65.5064 9.97933C65.4578 9.96313 65.4072 9.94693 65.3505 9.93074C65.2938 9.91454 65.2432 9.90846 65.1946 9.90846C64.9557 9.8295 64.7107 9.74041 64.4637 9.64524C64.2146 9.54806 63.9919 9.44884 63.7915 9.34558C63.591 9.24231 63.427 9.13095 63.2994 9.00947C63.1719 8.89001 63.1091 8.7584 63.1091 8.61464C63.1091 8.42228 63.1496 8.27447 63.2286 8.17121C63.3075 8.06795 63.4088 7.98291 63.5282 7.92014C63.6477 7.85737 63.7793 7.81688 63.9231 7.80068C64.0668 7.78448 64.1944 7.77638 64.3057 7.77638C64.9132 7.77638 65.4882 7.88369 66.0329 8.10035C66.5755 8.31497 67.0311 8.60856 67.3996 8.97505L67.4239 8.99934L68.8858 6.33677V6.28818C68.2135 5.8407 67.4867 5.50054 66.7051 5.26769C65.9215 5.03485 65.146 4.91943 64.3786 4.91943C63.7226 4.91943 63.1233 5.01257 62.5806 5.1948C62.038 5.37703 61.5743 5.63823 61.1896 5.97231C60.8049 6.30842 60.5093 6.70528 60.3008 7.16895C60.0922 7.6306 59.9889 8.14084 59.9889 8.69968V8.74625C59.9889 9.38405 60.1125 9.90644 60.3615 10.3134C60.6105 10.7204 60.9244 11.0545 61.3091 11.3177C61.6918 11.5809 62.1251 11.7874 62.6029 11.9393C63.0828 12.0891 63.5627 12.2309 64.0405 12.3584C64.1195 12.3908 64.1964 12.4111 64.2673 12.4192C64.3402 12.4273 64.4151 12.4475 64.494 12.4779C64.9091 12.6055 65.2695 12.7411 65.5733 12.8849C65.877 13.0286 66.0288 13.2433 66.0288 13.5308C66.0288 14.1362 65.5571 14.4399 64.6135 14.4399C63.9271 14.4399 63.2792 14.3083 62.6718 14.0451C62.0643 13.7818 61.5217 13.3931 61.0418 12.8808L61.0175 12.8565L59.3876 15.43L59.3633 15.4543L59.3876 15.4786C60.155 16.0597 60.977 16.5052 61.8578 16.821C62.7365 17.1349 63.6335 17.2928 64.5447 17.2928C65.9984 17.2928 67.1303 16.9486 67.9382 16.2622C68.7461 15.5758 69.149 14.6242 69.149 13.4093V13.385C69.149 12.8889 69.0559 12.4617 68.8736 12.1033C68.6894 11.7449 68.4343 11.4372 68.1062 11.18Z" fill="#9aa3b2"></path> <path d="M58.1675 5.11377H54.9785V17.1045H58.1675V5.11377Z" fill="#9aa3b2"></path> <path d="M54.9668 0.384277V4.03494L58.168 2.37058V0.384277H54.9668Z" fill="#9aa3b2"></path> <path d="M50.7585 0.317383L47.8833 14.1364L45.0082 0.317383H44.9899H44.9839H41.5357H41.5276H41.5114L38.6342 14.1364L35.759 0.317383H32.3027L36.4353 17.0825H40.8574L43.2588 6.9485L45.6601 17.0825H50.0822L54.2148 0.317383H50.7585Z" fill="#9aa3b2"></path> <g clip-path="url(#clip0_56_9601)"> <path d="M10.4387 0.36084L2.95412 0.36084C0.406393 0.36084 -0.555399 2.12247 0.805434 4.29103L7.83981 15.4944C9.20064 17.6629 11.4107 17.6629 12.7715 15.4944L14.0454 13.4649L8.29001 4.29103C6.92918 2.12247 7.89097 0.36084 10.4387 0.36084Z" fill="#9aa3b2"></path> <path d="M17.6551 0.36084L10.4365 0.36084C7.88881 0.36084 6.92702 2.12247 8.28786 4.29103L14.0484 13.4649L19.8089 4.29103C21.1697 2.12247 20.2079 0.36084 17.6602 0.36084" fill="#9aa3b2"></path> <path d="M25.1413 0.36084L17.6568 0.36084C20.2045 0.36084 21.1663 2.12247 19.8054 4.29103L14.0449 13.4649L15.3188 15.4944C16.6796 17.6629 18.8897 17.6629 20.2505 15.4944L27.2849 4.29103C28.6457 2.12247 27.6839 0.36084 25.1362 0.36084" fill="#9aa3b2"></path> </g> <defs> <clippath id="clip0_56_9601"> <rect fill="#9aa3b2" height="16.7613" transform="translate(0.185547 0.36084)" width="27.7231"></rect> </clippath> </defs> </svg>